<svg xmlns="http://www.w3.org/2000/svg" xmlns:xlink="http://www.w3.org/1999/xlink" width="500" zoomAndPan="magnify" viewBox="0 0 375 374.999991" height="500" preserveAspectRatio="xMidYMid meet" version="1.0"><defs><clipPath id="581afa8c88"><path d="M 153.355469 27 L 363.90625 27 L 363.90625 264.652344 L 153.355469 264.652344 Z M 153.355469 27 " clip-rule="nonzero"/></clipPath><clipPath id="c1057014c4"><path d="M 11.085938 111 L 248.835938 111 L 248.835938 348 L 11.085938 348 Z M 11.085938 111 " clip-rule="nonzero"/></clipPath></defs><path fill="#ffffff" d="M 274.453125 87.601562 C 274.867188 87.417969 275.449219 86.828125 275.785156 86.515625 C 277.96875 84.484375 280.097656 82.390625 282.359375 80.445312 C 284.167969 78.894531 286.082031 77.445312 288.050781 76.101562 C 291.835938 73.507812 297.230469 73.59375 301.488281 74.886719 C 301.84375 74.996094 302.214844 75.121094 302.582031 75.058594 C 303.023438 74.988281 303.394531 74.65625 303.574219 74.25 C 304.222656 72.757812 302.582031 70.414062 301.199219 69.902344 C 300.480469 69.636719 299.710938 69.367188 298.957031 69.339844 C 294.796875 69.199219 290.507812 69.800781 286.859375 71.914062 C 281.992188 74.738281 279.605469 79.25 276.835938 83.917969 C 276.109375 85.144531 275.050781 86.335938 274.453125 87.601562 Z M 294.625 89.171875 C 291.867188 88.996094 289.523438 89.875 287.394531 92.152344 C 287.152344 92.414062 287.339844 92.84375 287.699219 92.84375 L 295.136719 92.84375 C 295.621094 92.84375 295.984375 92.398438 295.890625 91.925781 C 295.742188 91.199219 295.617188 90.570312 295.488281 89.925781 C 295.402344 89.507812 295.050781 89.199219 294.625 89.171875 Z M 323.660156 100.964844 C 325.324219 100.332031 326.488281 98.824219 326.277344 96.984375 C 326.25 96.730469 326.136719 96.316406 325.78125 96.492188 C 323.917969 97.40625 323.054688 98.785156 323.132812 100.621094 C 323.144531 100.882812 323.414062 101.058594 323.660156 100.964844 Z M 290.804688 69.0625 C 294.613281 68.078125 298.378906 67.355469 302.113281 69.332031 C 305.007812 70.859375 306.027344 73.382812 304.84375 76.347656 C 304.164062 78.042969 303.390625 79.695312 302.675781 81.375 C 302.453125 81.902344 302.289062 82.460938 301.9375 83.464844 C 306.605469 82.191406 308.664062 78.503906 311.722656 75.902344 C 311.3125 77.753906 310.820312 79.566406 309.882812 81.105469 C 308.902344 82.714844 307.492188 84.070312 306.210938 85.601562 C 307.367188 86 308.414062 86.355469 309.460938 86.714844 C 309.46875 86.96875 306.367188 87.417969 304.949219 87.855469 C 304.605469 90.972656 303.992188 92.992188 301.441406 93.503906 C 300.550781 93.683594 299.625 93.691406 298.714844 93.757812 C 295.664062 93.972656 292.617188 94.179688 289.570312 94.390625 C 289.515625 94.566406 291.972656 96.492188 293.335938 97.105469 C 298.832031 99.585938 304.644531 100.980469 310.589844 101.808594 C 313.429688 102.203125 316.308594 102.390625 319.175781 102.519531 C 320.3125 102.570312 321.25 102.070312 321.699219 101.007812 C 321.96875 100.371094 322.019531 99.671875 322.257812 99.03125 C 322.601562 98.113281 323.03125 97.15625 323.730469 96.453125 C 324.324219 95.855469 325.253906 95.367188 326.125 95.503906 C 327.175781 95.671875 327.101562 97.5 326.902344 98.246094 C 326.730469 98.890625 326.394531 99.480469 326.007812 100.019531 C 325.628906 100.550781 325.191406 101.046875 324.707031 101.492188 C 324.230469 101.929688 323.625 102.242188 323.171875 102.695312 C 322.957031 102.910156 322.96875 103.195312 322.953125 103.492188 C 322.921875 104.15625 323.023438 104.820312 323.226562 105.449219 C 323.648438 106.75 324.488281 107.910156 325.550781 108.765625 C 326.589844 109.609375 327.878906 110.175781 329.226562 110.21875 C 333.175781 110.339844 336.671875 107.664062 338.597656 104.378906 C 339.347656 103.101562 339.804688 101.746094 339.601562 100.25 C 339.574219 100.042969 339.527344 99.824219 339.382812 99.679688 C 338.917969 99.21875 337.933594 99.613281 337.441406 99.835938 C 336.742188 100.144531 336.125 100.628906 335.667969 101.238281 C 335.09375 102.007812 334.738281 102.921875 334.179688 103.707031 C 334.027344 103.917969 333.863281 104.128906 333.636719 104.253906 C 333.574219 104.289062 333.503906 104.316406 333.4375 104.296875 C 333.183594 104.226562 333.25 103.210938 333.265625 103.003906 C 333.304688 102.5 333.441406 102.007812 333.640625 101.546875 C 334.039062 100.625 334.695312 99.824219 335.441406 99.160156 C 336.15625 98.527344 336.984375 97.804688 337.976562 97.695312 C 339.050781 97.574219 340.183594 98.148438 340.671875 99.125 C 341.183594 100.136719 340.847656 101.375 340.511719 102.390625 C 339.34375 105.929688 337.144531 108.660156 333.660156 110.269531 C 329.460938 112.207031 325.269531 110.90625 323.066406 106.808594 C 322.417969 105.597656 322.023438 104.246094 321.765625 103.601562 C 317.136719 103.070312 312.886719 102.746094 308.691406 102.074219 C 301.144531 100.867188 293.851562 98.871094 287.167969 94.957031 C 286.117188 94.347656 284.507812 94.371094 283.214844 94.550781 C 279.800781 95.027344 276.40625 96.316406 273 94.234375 C 278.25 94.851562 282.1875 92.382812 285.890625 89.144531 C 289.15625 86.28125 292.816406 84.15625 297.269531 83.546875 C 298.65625 83.355469 300.335938 82.769531 301.175781 81.769531 C 302.113281 80.660156 302.65625 78.894531 302.59375 77.363281 C 302.535156 75.910156 295.480469 73.714844 289.609375 77.109375 C 283.480469 80.65625 278.261719 85.28125 273.726562 90.757812 C 272.4375 92.308594 270.570312 92.84375 271.722656 89.597656 C 271.898438 89.109375 272.265625 88.628906 272.574219 88.160156 C 274.425781 85.339844 276.464844 82.621094 278.089844 79.679688 C 280.980469 74.449219 284.871094 70.59375 290.804688 69.0625 " fill-opacity="1" fill-rule="nonzero"/><g clip-path="url(#581afa8c88)"><path fill="#ffffff" d="M 354.476562 141.8125 C 352.59375 141.410156 351.289062 141.925781 350.125 143.101562 C 349.988281 143.238281 350.019531 143.46875 350.1875 143.574219 C 351.738281 144.550781 352.738281 144.199219 354.5625 142.066406 C 354.636719 141.976562 354.589844 141.835938 354.476562 141.8125 Z M 230.671875 118.542969 C 230.589844 118.503906 230.488281 118.5625 230.488281 118.65625 C 230.539062 120.933594 231.132812 124.382812 231.730469 126.527344 C 232.210938 128.238281 232.996094 130.367188 234.886719 130.910156 C 235.269531 131.019531 235.714844 131.050781 236.046875 130.824219 C 236.210938 130.710938 236.335938 130.542969 236.4375 130.375 C 237.558594 128.488281 236.460938 126.171875 235.539062 124.449219 C 234.585938 122.664062 232.597656 119.492188 230.671875 118.542969 Z M 261.292969 57.132812 C 260.535156 58.214844 259.832031 59.34375 259.183594 60.5 C 256.132812 65.921875 253.871094 71.667969 252.5625 77.765625 C 252.394531 78.558594 252.203125 79.355469 251.917969 80.121094 C 251.300781 81.785156 250.71875 83.433594 249.9375 85.035156 C 248.554688 87.882812 246.769531 90.535156 244.632812 92.875 C 242.449219 95.257812 240.402344 97.777344 238.382812 100.300781 C 236.109375 103.148438 233.832031 105.914062 232.300781 109.238281 C 232.167969 109.53125 232.035156 109.828125 231.910156 110.128906 C 231.503906 111.097656 231.148438 112.09375 230.859375 113.105469 C 230.640625 113.871094 230.074219 115.175781 230.394531 115.96875 C 230.546875 116.316406 230.820312 116.59375 231.085938 116.863281 C 234.179688 120.03125 236.964844 123.429688 237.839844 127.890625 C 238.105469 129.265625 237.21875 131.3125 235.855469 131.835938 C 235.25 132.066406 234.558594 131.96875 233.960938 131.71875 C 232.101562 130.949219 231.214844 129.058594 230.660156 127.253906 C 230.066406 125.339844 229.734375 123.359375 229.4375 121.382812 C 229.21875 119.921875 229.410156 117.328125 227.65625 116.785156 C 226.21875 116.339844 224.542969 116.492188 223.164062 117.054688 C 221.25 117.835938 219.753906 119.410156 219.324219 121.457031 C 218.507812 125.332031 219.863281 129.445312 221.246094 133.023438 C 222.398438 136.003906 223.675781 138.867188 225.46875 141.515625 C 227.261719 144.160156 229.257812 146.675781 231.472656 148.984375 C 233.160156 150.746094 234.871094 152.640625 236.8125 154.113281 C 238.75 155.578125 240.921875 156.871094 243.324219 157.402344 C 245.160156 157.808594 247.058594 157.886719 248.921875 157.621094 C 250.140625 157.449219 251.648438 157.179688 252.5625 156.269531 C 252.660156 156.179688 252.757812 156.085938 252.847656 155.984375 C 252.925781 155.894531 253.089844 155.769531 252.898438 155.730469 C 252.730469 155.695312 252.5625 155.714844 252.394531 155.695312 C 252.15625 155.667969 251.917969 155.640625 251.683594 155.609375 C 251.210938 155.546875 250.734375 155.480469 250.261719 155.40625 C 249.316406 155.257812 248.378906 155.089844 247.441406 154.898438 C 247.195312 154.851562 246.953125 154.800781 246.707031 154.75 C 244.6875 154.328125 242.601562 153.972656 240.636719 153.324219 C 239.425781 152.925781 238.195312 152.34375 237.265625 151.453125 C 236.5625 150.78125 235.574219 149.644531 235.96875 148.589844 C 236.078125 148.308594 236.296875 148.082031 236.5625 147.945312 C 237.730469 147.359375 239.101562 147.636719 240.328125 147.785156 C 242.164062 148.003906 246.421875 149.011719 246.449219 149.035156 C 245.046875 147.878906 243.9375 146.390625 242.644531 145.117188 C 241.378906 143.871094 239.839844 142.695312 238.039062 142.402344 C 236.503906 142.152344 235.734375 141.03125 235.972656 139.476562 C 236.230469 137.800781 237.453125 137.078125 239.019531 137.191406 C 240.277344 137.28125 240.644531 138.3125 241.105469 139.4375 C 243.128906 144.386719 245.4375 147.058594 248.695312 149.316406 C 247.703125 147.042969 244.910156 142.761719 244.203125 140.601562 C 243.777344 139.304688 243.367188 138 243.050781 136.671875 C 242.757812 135.433594 242.410156 134.050781 242.527344 132.773438 C 242.605469 131.917969 242.992188 130.917969 243.757812 130.449219 C 244.617188 129.921875 245.777344 130.496094 246.515625 130.988281 C 247.332031 131.535156 248.019531 132.253906 248.632812 133.011719 C 249.539062 134.128906 251.363281 138.585938 252.277344 139.691406 C 252.210938 138.617188 251.039062 134.234375 250.949219 133.160156 C 250.675781 129.777344 250.535156 126.375 250.152344 123.003906 C 250.0625 122.226562 249.933594 121.457031 249.71875 120.710938 C 249.496094 119.9375 249.050781 119.292969 248.785156 118.554688 C 248.347656 117.34375 248.554688 115.75 249.664062 114.972656 C 250.480469 114.40625 251.503906 114.125 252.433594 114.589844 C 253.296875 115.019531 253.851562 115.898438 253.933594 116.855469 C 254 117.613281 253.789062 118.378906 253.429688 119.054688 C 253.09375 119.683594 252.632812 120.238281 252.28125 120.859375 C 251.707031 121.867188 251.785156 122.992188 251.742188 124.117188 C 251.695312 125.375 251.691406 126.632812 251.730469 127.890625 C 251.8125 130.398438 252.066406 132.898438 252.46875 135.375 C 252.722656 136.945312 253.03125 138.507812 253.394531 140.054688 C 253.5 140.503906 253.742188 140.921875 254.101562 141.804688 C 254.320312 140.90625 254.460938 140.476562 254.527344 140.03125 C 255.292969 134.964844 255.867188 129.859375 256.867188 124.839844 C 257.523438 121.515625 259.699219 119.058594 262.832031 117.609375 C 264.382812 116.898438 266.230469 116.867188 267.675781 117.839844 C 269.054688 118.765625 269.679688 120.441406 269.78125 122.046875 C 269.953125 124.804688 268.863281 127.265625 268.253906 129.886719 C 268.1875 130.175781 268.121094 130.464844 268.082031 130.753906 C 268.070312 130.847656 268.113281 131.21875 268.070312 131.28125 C 268.699219 130.347656 273.960938 119.316406 278.195312 115.671875 C 279.273438 114.742188 280.28125 113.671875 280.890625 112.382812 C 281.226562 111.667969 281.40625 110.898438 281.707031 110.167969 C 282.003906 109.445312 282.457031 108.734375 283.15625 108.378906 C 284.109375 107.890625 285.398438 108.15625 286.132812 108.917969 C 287.105469 109.921875 287.140625 111.554688 286.382812 112.691406 C 285.835938 113.519531 284.921875 114.074219 283.949219 114.269531 C 283.207031 114.417969 282.429688 114.367188 281.703125 114.578125 C 280.695312 114.867188 279.914062 115.613281 279.238281 116.378906 C 278.507812 117.214844 277.765625 118.042969 277.066406 118.902344 C 275.570312 120.738281 274.191406 122.664062 272.941406 124.671875 C 272.515625 125.355469 272.105469 126.042969 271.710938 126.746094 C 270.625 128.664062 269.652344 130.648438 268.800781 132.6875 C 268.375 133.703125 267.980469 134.734375 267.617188 135.773438 C 267.292969 136.699219 265.480469 140.515625 265.328125 140.84375 C 265.8125 140.457031 267.289062 138.9375 267.699219 138.445312 C 270.585938 134.980469 274.632812 132.621094 279.007812 131.703125 C 280.503906 131.386719 282.773438 130.835938 284.058594 131.984375 C 285.054688 132.882812 284.71875 134.359375 284.171875 135.402344 C 283.234375 137.183594 281.910156 138.777344 280.640625 140.355469 C 278.507812 143.007812 275.824219 145.386719 273.167969 147.742188 C 273.589844 147.710938 274.53125 147.511719 274.984375 147.429688 C 277.3125 147.015625 279.71875 147.035156 282.074219 147.027344 C 284.660156 147.019531 287.246094 147.078125 289.832031 147.082031 C 289.910156 147.082031 289.988281 147.082031 290.0625 147.082031 C 291.070312 147.101562 292.078125 147.125 293.085938 147.152344 C 294.511719 147.191406 296.0625 147.203125 297.210938 146.355469 C 298.078125 145.722656 298.753906 144.605469 299.886719 144.785156 C 300.195312 144.832031 300.480469 144.980469 300.710938 145.1875 C 301.492188 145.898438 301.796875 147.125 301.378906 148.101562 C 301.0625 148.84375 300.304688 149.402344 299.492188 149.410156 C 298.738281 149.414062 298.0625 148.988281 297.375 148.675781 C 295.140625 147.65625 292.578125 147.800781 290.121094 147.84375 C 285.320312 147.929688 280.460938 147.542969 275.710938 148.414062 C 274.285156 148.671875 272.867188 149.046875 271.492188 149.496094 C 270.730469 149.742188 269.984375 150.046875 269.269531 150.5625 C 274.367188 150.21875 279.238281 151.023438 284.023438 152.566406 C 286.675781 153.417969 289.488281 155.640625 289.769531 158.621094 C 289.949219 160.507812 288.550781 161.566406 286.894531 161.988281 C 283.085938 162.964844 278.890625 162.648438 275.179688 161.394531 C 274.121094 161.035156 273.058594 160.367188 271.90625 160.496094 C 272.050781 160.480469 273.675781 162.464844 273.765625 162.59375 C 274.277344 163.355469 274.746094 164.269531 274.925781 165.171875 C 275.03125 165.675781 274.96875 166.257812 274.613281 166.625 C 274.347656 166.898438 273.957031 167.019531 273.578125 167.042969 C 272.617188 167.113281 271.722656 166.652344 270.914062 166.179688 C 270.003906 165.644531 269.089844 165.101562 268.191406 164.535156 C 266.394531 163.398438 264.632812 162.207031 262.871094 161.015625 C 261.734375 160.246094 259.550781 158.484375 259.257812 158.777344 C 260.664062 160.421875 261.875 162.296875 263.519531 163.648438 C 267.152344 166.632812 270.726562 169.886719 274.839844 172.066406 C 282.617188 176.1875 290.96875 178.570312 299.976562 178.054688 C 313.953125 177.253906 327.414062 174.421875 340.234375 168.65625 C 342.472656 167.648438 344.8125 166.890625 347.136719 166.117188 C 349.3125 165.394531 351.484375 164.707031 353.457031 163.515625 C 355.957031 162 358.132812 159.945312 359.800781 157.546875 C 360.09375 157.128906 360.371094 156.703125 360.613281 156.25 C 362.566406 152.625 361.917969 148.027344 359.832031 144.597656 C 359.460938 143.988281 358.984375 143.433594 358.453125 142.960938 C 357.222656 141.878906 356.394531 141.070312 355.308594 142.617188 C 354.179688 144.234375 352.039062 145.394531 350.191406 144.613281 C 348.585938 143.941406 348.449219 142.214844 349.734375 141.140625 C 350.320312 140.648438 351.070312 140.386719 351.828125 140.28125 C 352.480469 140.1875 353.1875 140.167969 353.84375 140.238281 C 354.300781 140.285156 354.761719 140.347656 355.203125 140.152344 C 355.871094 139.859375 355.96875 139.09375 356.121094 138.460938 C 357.316406 133.585938 354.765625 130.03125 349.738281 129.695312 C 345.332031 129.402344 341.4375 130.96875 337.800781 133.253906 C 335.019531 135 332.160156 136.21875 328.839844 135.070312 C 328.25 134.867188 327.726562 134.449219 327.167969 134.046875 C 327.007812 133.929688 327.097656 133.675781 327.296875 133.6875 C 328.492188 133.777344 331.179688 133.882812 333.839844 128.882812 C 335.355469 126.027344 336.414062 122.949219 337.585938 119.9375 C 338.832031 116.734375 340.324219 113.753906 343.898438 111.800781 C 340.027344 108.878906 341.011719 105.535156 342.242188 102.054688 C 343.015625 99.882812 343.660156 97.617188 343.957031 95.339844 C 344.359375 92.269531 342.980469 90.882812 339.957031 90.257812 C 334.71875 89.179688 329.472656 88.109375 324.308594 86.742188 C 317.476562 84.9375 314.15625 77.039062 317.441406 70.589844 C 317.117188 70.21875 316.773438 69.789062 316.394531 69.394531 C 313.792969 66.699219 311.136719 63.949219 308.519531 61.226562 C 306.089844 58.703125 303.730469 56.09375 301.132812 53.746094 C 297.765625 50.699219 293.925781 48.128906 289.496094 46.945312 C 283.136719 45.253906 275.953125 45.75 270.132812 48.933594 C 266.507812 50.917969 263.628906 53.8125 261.292969 57.132812 Z M 238.089844 149.015625 C 237.828125 149.042969 237.613281 149.160156 237.519531 149.488281 C 237.464844 149.6875 237.480469 149.90625 237.539062 150.109375 C 237.851562 151.222656 238.847656 151.703125 239.808594 152.117188 C 240.898438 152.585938 242.019531 152.992188 243.160156 153.328125 C 245.441406 154.003906 247.800781 154.40625 250.175781 154.519531 C 250.480469 154.53125 251.859375 154.433594 252.273438 154.46875 C 252.300781 154.472656 252.3125 154.441406 252.292969 154.421875 C 251.90625 154.109375 251.582031 153.707031 251.199219 153.382812 C 250.761719 153.011719 250.296875 152.664062 249.820312 152.34375 C 248.859375 151.707031 247.824219 151.175781 246.753906 150.746094 C 244.132812 149.691406 241.3125 149.316406 238.519531 149.027344 C 238.371094 149.011719 238.226562 149.003906 238.089844 149.015625 Z M 254.898438 152.839844 C 254.792969 151.59375 254.609375 150.355469 254.355469 149.132812 C 254.117188 147.988281 253.644531 146.902344 253.242188 145.808594 C 252.371094 143.425781 251.449219 141.058594 250.476562 138.714844 C 250.023438 137.613281 249.601562 136.5 249.035156 135.445312 C 248.617188 134.660156 248.132812 133.910156 247.542969 133.234375 C 246.855469 132.445312 245.820312 131.730469 244.726562 132.078125 C 243.742188 132.386719 243.789062 134.023438 243.953125 134.824219 C 244.175781 135.910156 244.570312 136.984375 244.886719 138.039062 C 245.21875 139.152344 245.566406 140.261719 245.957031 141.355469 C 246.726562 143.535156 247.667969 145.667969 248.964844 147.589844 C 248.988281 147.628906 249.015625 147.664062 249.042969 147.703125 C 250.042969 149.167969 251.214844 150.507812 252.527344 151.695312 C 252.746094 151.890625 252.972656 152.070312 253.222656 152.222656 C 253.355469 152.300781 254.90625 152.917969 254.898438 152.84375 C 254.898438 152.84375 254.898438 152.839844 254.898438 152.839844 Z M 256.738281 152.234375 C 256.773438 152.5 256.921875 152.753906 257.234375 153.582031 C 258.648438 150.84375 259.90625 148.605469 260.980469 146.285156 C 263.046875 141.8125 265.261719 137.359375 266.769531 132.65625 C 267.386719 130.734375 267.847656 128.777344 268.210938 126.796875 C 268.429688 125.597656 268.601562 124.382812 268.566406 123.160156 C 268.539062 122.160156 268.453125 120.65625 267.621094 119.953125 C 266.925781 119.367188 265.871094 119.050781 264.972656 119.148438 C 264.355469 119.210938 263.765625 119.433594 263.210938 119.710938 C 259.835938 121.398438 258.363281 125.125 257.523438 128.582031 C 256.34375 133.464844 255.820312 138.558594 255.9375 143.582031 C 255.953125 144.273438 255.984375 144.960938 256.027344 145.652344 C 256.058594 146.140625 256.09375 146.625 256.136719 147.113281 C 256.292969 148.824219 256.496094 150.535156 256.738281 152.234375 Z M 263.351562 151.824219 C 267.519531 149.910156 271.824219 148.09375 275.191406 144.886719 C 276.628906 143.519531 277.898438 141.992188 279.113281 140.421875 C 280.289062 138.910156 281.597656 137.40625 282.542969 135.738281 C 282.824219 135.242188 283.160156 134.515625 282.886719 133.953125 C 282.65625 133.472656 282.054688 133.324219 281.527344 133.273438 C 277.414062 132.875 274.199219 135.210938 271.320312 137.84375 C 268.75 140.191406 266.457031 142.835938 264.308594 145.570312 C 262.703125 147.617188 261.152344 149.726562 259.777344 151.941406 C 259.5625 152.28125 259.085938 152.832031 259.054688 153.257812 C 260.636719 152.738281 262.058594 152.417969 263.351562 151.824219 Z M 260.261719 157.300781 C 260.539062 157.34375 260.859375 157.710938 261.054688 157.878906 C 262.242188 158.886719 263.351562 159.980469 264.601562 160.925781 C 266.582031 162.425781 268.792969 163.59375 270.824219 165.023438 C 271.453125 165.464844 272.09375 165.941406 272.839844 166.128906 C 273.011719 166.171875 273.191406 166.203125 273.363281 166.160156 C 273.65625 166.085938 273.765625 165.820312 273.773438 165.542969 C 273.820312 163.824219 272.53125 162.335938 271.25 161.359375 C 268.984375 159.632812 266.238281 158.640625 263.503906 157.949219 C 262.4375 157.675781 261.351562 157.46875 260.261719 157.300781 Z M 263.007812 155.84375 C 263.363281 156 263.714844 156.140625 264.039062 156.273438 C 265.019531 156.679688 266.027344 157.011719 267.027344 157.363281 C 270.351562 158.519531 273.660156 159.8125 277.039062 160.824219 C 279.226562 161.476562 281.507812 161.9375 283.804688 161.84375 C 285.488281 161.773438 287.742188 161.351562 288.214844 159.425781 C 288.804688 156.996094 286.199219 154.847656 284.292969 153.96875 C 282.269531 153.039062 280.027344 152.667969 277.835938 152.378906 C 273.261719 151.777344 268.621094 151.992188 264.230469 153.488281 C 263.726562 153.664062 263.230469 153.867188 262.746094 154.09375 C 262.34375 154.277344 261.617188 154.496094 261.34375 154.832031 C 261.792969 155.25 262.402344 155.574219 263.007812 155.84375 Z M 298.972656 216.910156 C 308.765625 214.117188 310.703125 202 309.796875 191.628906 C 309.785156 191.476562 309.585938 191.425781 309.5 191.550781 C 304.398438 198.917969 297.960938 205.390625 298.167969 216.320312 C 298.175781 216.734375 298.578125 217.023438 298.972656 216.910156 Z M 256.082031 160.246094 C 256.074219 163.085938 256.640625 166.046875 257.59375 168.640625 C 260.472656 176.460938 266.25 183.925781 268.414062 186.996094 C 270.9375 190.578125 274.382812 193.558594 277.914062 196.125 C 281.457031 198.691406 284.515625 202.015625 287.476562 205.285156 C 289.167969 207.148438 290.746094 209.109375 292.300781 211.085938 C 293.078125 212.074219 293.851562 213.074219 294.628906 214.0625 C 295.308594 214.929688 295.90625 215.804688 296.820312 216.449219 C 297.113281 212.011719 297.4375 207.460938 299.332031 203.441406 C 300.824219 200.269531 303.207031 197.621094 305.328125 194.832031 C 307.152344 192.4375 308.8125 189.890625 310.929688 187.753906 C 311.0625 187.621094 311.285156 187.703125 311.304688 187.886719 C 311.648438 191.421875 311.0625 194.984375 310.878906 198.539062 C 310.710938 201.839844 310.875 205.234375 309.765625 208.351562 C 308.945312 210.652344 307.457031 212.671875 305.738281 214.414062 C 304.023438 216.15625 302.070312 217.648438 300.144531 219.152344 C 298.96875 220.074219 298.820312 220.949219 299.375 222.328125 C 301.328125 227.183594 302.785156 232.199219 302.941406 237.453125 C 303.027344 240.402344 302.597656 243.363281 302.40625 246.324219 C 302.609375 246.410156 306.796875 242.359375 308.507812 240.078125 C 312.769531 234.40625 315.316406 227.910156 316.636719 221 C 318.195312 212.84375 319.511719 204.640625 320.8125 196.4375 C 323.113281 181.957031 332.570312 174.136719 332.777344 173.605469 C 331.964844 173.789062 317.289062 178.0625 307.324219 179.003906 C 301.078125 179.597656 294.945312 180.0625 288.847656 178.699219 C 276.789062 176.003906 266.179688 170.738281 258.535156 160.578125 C 257.824219 159.636719 257.078125 158.691406 256.277344 157.824219 C 256.144531 158.621094 256.085938 159.429688 256.082031 160.246094 Z M 247.496094 192.871094 C 247.363281 192.894531 247.355469 193.082031 247.480469 193.125 C 252.398438 194.714844 256.933594 197.515625 261.421875 200.464844 C 265.820312 203.355469 270.957031 204.082031 276.035156 204.859375 C 278.964844 205.3125 281.910156 205.671875 284.980469 206.085938 C 285.15625 206.109375 285.269531 205.910156 285.15625 205.773438 C 275.09375 193.632812 262.351562 189.824219 247.496094 192.871094 Z M 340.898438 130.445312 C 343.800781 129.789062 346.582031 129.167969 349.382812 128.535156 C 349.664062 128.472656 349.851562 128.199219 349.804688 127.917969 C 349.441406 125.765625 347.558594 123.960938 345.457031 124.011719 C 343.226562 124.070312 340.785156 127.097656 340.527344 130.125 C 340.507812 130.328125 340.699219 130.488281 340.898438 130.445312 Z M 351.621094 118.878906 C 351.085938 114.988281 349.273438 113.839844 346.789062 113.527344 C 344.359375 113.21875 341.859375 115.003906 340.351562 118.433594 C 338.324219 123.039062 336.4375 127.707031 334.410156 132.554688 C 334.300781 132.820312 334.539062 133.101562 334.816406 133.035156 C 336.753906 132.558594 338.011719 131.40625 338.980469 129.820312 C 339.972656 128.203125 340.796875 126.496094 341.898438 124.953125 C 343.972656 122.054688 346.933594 121.738281 349.1875 124.515625 C 349.792969 125.261719 350.25 126.441406 351.074219 127.667969 C 351.800781 124.707031 351.949219 121.289062 351.621094 118.878906 Z M 319.695312 73.351562 C 319.464844 72.882812 319.074219 72.523438 318.519531 72.507812 C 317.3125 72.46875 317.671875 74.171875 317.730469 74.894531 C 317.742188 75.074219 318.023438 77.363281 318.054688 77.351562 C 318.988281 76.914062 319.738281 75.992188 319.925781 74.972656 C 320.015625 74.496094 319.945312 73.859375 319.695312 73.351562 Z M 294.425781 238.929688 C 293.902344 237.800781 293.257812 236.71875 292.578125 235.675781 C 291.386719 233.863281 290.203125 232.054688 288.90625 230.3125 C 286.957031 227.691406 283.976562 224.808594 282.449219 220.011719 C 282.425781 219.945312 282.328125 219.957031 282.324219 220.027344 C 282.21875 221.769531 282.191406 223.507812 282.039062 225.238281 C 281.863281 227.222656 281.730469 229.214844 281.773438 231.210938 C 281.839844 234.261719 282.273438 237.484375 283.917969 240.125 C 285.367188 242.453125 287.875 243.636719 290.121094 245.027344 C 291.183594 245.683594 292.101562 246.566406 292.816406 247.589844 C 293.191406 248.121094 293.511719 248.699219 293.765625 249.300781 C 294.003906 249.859375 294.082031 250.585938 294.339844 251.085938 C 295.707031 248.050781 296.230469 244.746094 295.367188 241.484375 C 295.132812 240.601562 294.808594 239.753906 294.425781 238.929688 Z M 153.949219 69.839844 C 154.046875 69.8125 154.148438 69.792969 154.246094 69.773438 C 175.914062 65.441406 196.265625 55.6875 214.425781 43.105469 C 219.640625 39.492188 224.707031 35.632812 230.273438 32.585938 C 233.3125 30.921875 236.503906 29.511719 239.839844 28.558594 C 243.179688 27.605469 246.617188 27.257812 250.074219 27.144531 C 254.394531 27.003906 258.746094 27.511719 262.871094 28.824219 C 265.859375 29.777344 268.722656 31.105469 271.367188 32.78125 C 274.003906 34.453125 276.628906 36.417969 278.449219 38.992188 C 279.339844 40.257812 279.996094 41.683594 280.332031 43.199219 C 280.652344 44.671875 281.324219 45.066406 282.734375 45.136719 C 292.566406 45.632812 300.128906 50.683594 306.734375 57.445312 C 311.101562 61.910156 315.347656 66.496094 319.488281 71.167969 C 320.410156 72.210938 320.925781 73.820312 321.113281 75.238281 C 321.246094 76.230469 320.445312 77.328125 320.175781 78.410156 C 319.945312 79.332031 319.972656 80.574219 321.289062 80.5 C 321.953125 80.460938 322.523438 80.027344 323.046875 79.613281 C 324.964844 78.085938 326.5 76.570312 327.808594 74.511719 C 326.867188 78.496094 325.609375 82.242188 321.117188 83.535156 C 322.28125 85.664062 324.160156 86.125 325.980469 86.5 C 330.589844 87.453125 335.238281 88.210938 339.84375 89.175781 C 344.753906 90.207031 345.984375 92.027344 344.996094 96.957031 C 344.476562 99.566406 343.542969 102.09375 342.875 104.675781 C 341.847656 108.648438 343.203125 111.078125 347.007812 111.984375 C 349.933594 112.679688 352.257812 114.789062 352.617188 117.632812 C 353.035156 120.933594 352.417969 124.027344 352.511719 127.371094 C 352.53125 128.078125 352.683594 129.125 353.148438 129.417969 C 357.003906 131.875 358.832031 134.980469 357.640625 139.421875 C 357.320312 140.621094 358.535156 141.816406 359.160156 142.398438 C 362.371094 145.382812 363.890625 149.605469 362.972656 153.953125 C 362.839844 154.585938 362.652344 155.214844 362.410156 155.820312 C 361.445312 158.238281 359.742188 160.296875 357.828125 162.03125 C 353.761719 165.722656 348.714844 167.570312 343.695312 169.414062 C 331.808594 173.789062 324.367188 181.871094 322.347656 194.589844 C 320.914062 203.621094 319.386719 212.644531 318.027344 221.6875 C 316.621094 231.035156 312.007812 238.675781 305.722656 245.464844 C 303.480469 247.890625 301.054688 250.15625 298.902344 252.65625 C 295.738281 256.332031 292.773438 260.179688 289.652344 263.886719 C 289.425781 264.15625 289.039062 264.292969 288.632812 264.40625 C 288.207031 264.527344 287.789062 264.1875 287.8125 263.742188 C 287.832031 263.347656 287.875 262.964844 288.046875 262.652344 C 288.75 261.363281 289.617188 260.160156 290.476562 258.96875 C 293.652344 254.570312 293.191406 250.476562 289.054688 246.976562 C 288.144531 246.210938 287.125 245.570312 286.203125 244.8125 C 281.988281 241.332031 279.195312 237.160156 279.820312 231.371094 C 280.128906 228.507812 280.386719 225.632812 280.753906 222.769531 C 281.0625 220.417969 281.472656 218.074219 281.894531 215.433594 C 281.933594 215.203125 282.257812 215.171875 282.332031 215.398438 C 282.96875 217.269531 284.328125 221.863281 285.890625 223.929688 C 288.097656 226.839844 290.4375 229.675781 292.394531 232.75 C 295.421875 237.515625 298.289062 242.421875 297.238281 248.488281 C 297.203125 248.679688 296.589844 250.824219 296.832031 251.3125 C 298.515625 248.839844 300.414062 244.527344 300.660156 241.816406 C 301.445312 233.136719 299.449219 224.984375 295.441406 217.382812 C 292.359375 211.535156 287.234375 207.988281 280.746094 206.785156 C 277.511719 206.183594 274.15625 206.183594 270.851562 206.042969 C 266.445312 205.855469 262.527344 204.476562 258.808594 202.058594 C 254.929688 199.53125 250.800781 197.390625 246.746094 195.144531 C 245.1875 194.28125 243.550781 193.554688 241.574219 192.609375 C 241.359375 192.503906 241.394531 192.1875 241.625 192.128906 C 251.464844 189.765625 260.753906 190.640625 270.109375 191.890625 C 270.277344 191.914062 270.386719 191.71875 270.277344 191.589844 C 262.050781 181.660156 254.308594 171.695312 254.398438 158.09375 C 252.269531 158.664062 250.308594 159.441406 248.074219 159.535156 C 245.242188 159.660156 242.453125 158.953125 239.921875 157.707031 C 236.980469 156.261719 234.53125 153.980469 232.308594 151.609375 C 229.953125 149.105469 227.601562 146.542969 225.515625 143.808594 C 225.511719 143.804688 225.507812 143.796875 225.503906 143.792969 C 223.394531 141.03125 221.796875 137.808594 220.636719 134.535156 C 220.601562 134.4375 220.566406 134.335938 220.53125 134.234375 C 219.417969 131.003906 218.453125 127.691406 218.113281 124.28125 C 217.835938 121.496094 218.234375 118.660156 220.757812 117.019531 C 221.609375 116.464844 222.574219 116.09375 223.550781 115.828125 C 225.386719 115.335938 227.320312 115.753906 229.269531 116.359375 C 229.6875 113.324219 230.910156 109.011719 232.648438 106.410156 C 235.996094 101.402344 239.835938 96.703125 243.710938 92.078125 C 247.203125 87.90625 250.175781 83.4375 251.371094 78.152344 C 253.296875 69.660156 256.246094 61.78125 261.8125 54.910156 C 266 49.742188 271.078125 46.386719 277.632812 45.300781 C 279.976562 44.914062 280.210938 44.4375 279.007812 42.328125 C 275.996094 37.0625 270.855469 33.382812 265.261719 31.253906 C 258.800781 28.796875 251.964844 27.871094 245.09375 28.886719 C 238.050781 29.933594 231.703125 33.152344 225.851562 37.089844 C 225.792969 37.128906 225.738281 37.167969 225.679688 37.207031 C 219.691406 41.261719 214.042969 45.777344 207.9375 49.664062 C 202.113281 53.371094 196.054688 56.710938 189.808594 59.65625 C 183.5625 62.597656 177.132812 65.148438 170.566406 67.285156 C 165.609375 68.898438 153.121094 70.535156 153.457031 70.125 C 153.582031 69.976562 153.761719 69.894531 153.949219 69.839844 " fill-opacity="1" fill-rule="nonzero"/></g><g clip-path="url(#c1057014c4)"><path fill="#ffffff" d="M 101.796875 347.308594 C 100.667969 347.050781 99.5625 346.707031 98.488281 346.277344 C 97.742188 345.957031 96.984375 345.679688 96.203125 345.457031 C 94.535156 345.046875 95.359375 344.683594 98.03125 344.65625 C 99.511719 344.636719 102.171875 344.328125 103.9375 343.960938 C 107.234375 343.28125 108.433594 342.910156 118.148438 339.59375 C 121.25 338.53125 124.652344 337.46875 125.707031 337.226562 C 127.535156 336.816406 127.589844 336.820312 126.84375 337.320312 C 126.074219 337.890625 125.335938 338.5 124.636719 339.15625 C 122.398438 341.222656 117.726562 344.566406 115.660156 345.582031 C 111.542969 347.605469 106.167969 348.273438 101.796875 347.308594 Z M 95.496094 342.894531 C 98.675781 340.382812 103.703125 336.910156 105.261719 336.140625 C 109.15625 334.222656 112.578125 333.890625 121.488281 334.5625 C 124 334.753906 126.378906 334.972656 126.777344 335.050781 C 127.824219 335.253906 127.304688 335.804688 126.0625 335.804688 C 124.5625 335.804688 118.152344 337.699219 112.71875 339.753906 C 106.222656 342.207031 102.539062 343.105469 98.328125 343.261719 C 95.128906 343.378906 94.914062 343.351562 95.492188 342.894531 Z M 80.53125 337.101562 C 76.902344 335.910156 68.890625 331.765625 67.898438 330.570312 C 67.144531 329.660156 69.832031 330.097656 79.742188 332.5 C 86.949219 334.246094 90.945312 334.695312 95.535156 334.265625 C 97.433594 334.089844 99.261719 333.863281 99.601562 333.761719 C 99.941406 333.664062 98.945312 334.21875 97.386719 335 C 91.105469 338.132812 85.707031 338.804688 80.53125 337.101562 Z M 119.28125 333.238281 C 96.445312 330.902344 74.597656 320.886719 57.84375 305.078125 C 54.332031 301.761719 53.039062 300.980469 50.121094 300.410156 C 46.363281 299.671875 44.613281 299.628906 44.609375 300.28125 C 44.609375 300.496094 44.273438 301.09375 43.867188 301.601562 C 42.53125 303.273438 40.242188 302.726562 39.066406 300.453125 C 38.46875 299.292969 38.503906 299.035156 39.398438 298.140625 C 40.417969 297.121094 42.066406 297.101562 43.222656 298.09375 C 43.957031 298.726562 44.265625 298.796875 45.523438 298.59375 C 46.324219 298.464844 47.296875 298.4375 47.683594 298.527344 C 48.074219 298.617188 48.394531 298.597656 48.394531 298.476562 C 48.394531 298.203125 40.046875 294.210938 39.503906 294.222656 C 39.28125 294.230469 38.824219 294.441406 38.488281 294.695312 C 37.328125 295.574219 34.355469 295.046875 33.300781 293.777344 C 33.058594 293.484375 32.875 292.789062 32.890625 292.234375 C 32.972656 289.253906 37.925781 288.925781 38.976562 291.824219 C 39.3125 292.753906 39.640625 293.007812 41.28125 293.601562 C 43.347656 294.351562 48.316406 296.800781 50.582031 298.191406 L 51.984375 299.046875 L 50.105469 296.867188 C 49.074219 295.667969 47.308594 293.429688 46.183594 291.898438 C 42.046875 286.25 42.53125 286.703125 39.003906 285.203125 C 34.808594 283.425781 32.925781 282.148438 30.066406 279.160156 C 27.371094 276.335938 26.601562 274.910156 27.367188 274.148438 C 27.8125 273.703125 28.105469 273.820312 30.484375 275.378906 C 33.789062 277.542969 37.546875 280.050781 38.378906 280.652344 C 38.832031 280.972656 38.492188 280.078125 37.214844 277.582031 C 35.5625 274.347656 35.210938 273.886719 33.003906 272.058594 C 27.921875 267.851562 22.527344 259.761719 24.140625 258.765625 C 24.566406 258.503906 28.199219 261.71875 30.367188 264.273438 C 32.082031 266.292969 32.214844 266.207031 31.195312 263.710938 C 29.546875 259.683594 27.050781 248.980469 26.132812 241.980469 C 25.457031 236.839844 25.371094 223.472656 25.976562 218.253906 C 26.382812 214.777344 26.371094 214.484375 25.734375 212.160156 C 25.367188 210.816406 24.847656 209.300781 24.585938 208.789062 C 23.878906 207.421875 21.632812 206.75 22.132812 208.054688 C 22.230469 208.308594 22.589844 208.515625 22.929688 208.515625 C 23.800781 208.515625 23.542969 209.589844 22.640625 209.71875 C 21.746094 209.847656 20.355469 208.484375 20.355469 207.476562 C 20.355469 206.066406 21.925781 205.21875 23.394531 205.839844 C 24.578125 206.335938 25.449219 207.53125 26.21875 209.699219 C 26.96875 211.820312 27.234375 211.242188 27.261719 207.414062 C 27.285156 204.128906 26.546875 199.128906 25.808594 197.574219 C 25.25 196.394531 24.035156 195.429688 23.515625 195.75 C 23.007812 196.0625 23.128906 196.859375 23.683594 196.859375 C 24.335938 196.859375 24.148438 197.792969 23.40625 198.246094 C 22.9375 198.53125 22.699219 198.4375 22.066406 197.710938 C 20.453125 195.855469 21.734375 193.449219 24.132812 193.828125 C 26.394531 194.1875 27.820312 197.058594 28.199219 202.027344 L 28.386719 204.515625 L 29.601562 200.292969 C 30.269531 197.972656 31.164062 194.632812 31.589844 192.871094 L 32.363281 189.667969 L 31.683594 188.085938 C 31.050781 186.617188 30.949219 186.523438 30.230469 186.796875 C 29.214844 187.183594 27.421875 186.445312 27.125 185.519531 C 26.777344 184.414062 27.242188 182.722656 28.042969 182.199219 C 29.398438 181.3125 31.449219 182.761719 31.515625 184.65625 C 31.558594 185.304688 31.753906 185.90625 32.097656 186.457031 C 32.636719 187.230469 32.640625 187.222656 32.707031 185.195312 C 32.839844 181.257812 32.71875 180.609375 31.699219 179.585938 C 30.964844 178.851562 30.75 178.355469 30.75 177.394531 C 30.75 174.789062 33.09375 173.527344 34.535156 175.355469 C 35.261719 176.28125 35.246094 177.878906 34.503906 178.773438 C 34.128906 179.222656 33.875 187.09375 34.234375 187.09375 C 34.332031 187.09375 34.722656 186.347656 35.097656 185.4375 C 36.285156 182.582031 40.132812 175.757812 42.933594 171.542969 C 51.945312 157.988281 64.488281 146.359375 78.6875 138.386719 C 90.136719 131.960938 103.535156 127.582031 117.320312 125.761719 C 122.351562 125.097656 135.800781 125.007812 140.859375 125.601562 C 164.648438 128.410156 185.347656 137.984375 202.296875 154.015625 C 205.574219 157.117188 206.964844 157.953125 209.8125 158.542969 C 212.824219 159.164062 215.371094 159.21875 215.375 158.660156 C 215.375 158.441406 215.710938 157.847656 216.117188 157.335938 C 217.453125 155.667969 219.742188 156.214844 220.917969 158.484375 C 221.515625 159.644531 221.480469 159.90625 220.585938 160.800781 C 219.566406 161.820312 217.917969 161.835938 216.761719 160.84375 C 216.027344 160.210938 215.71875 160.144531 214.460938 160.34375 C 213.660156 160.472656 212.6875 160.503906 212.300781 160.410156 C 211.910156 160.320312 211.589844 160.34375 211.589844 160.460938 C 211.589844 160.734375 219.9375 164.730469 220.480469 164.714844 C 220.703125 164.710938 221.160156 164.496094 221.496094 164.242188 C 222.65625 163.367188 225.628906 163.890625 226.683594 165.160156 C 226.925781 165.453125 227.109375 166.148438 227.09375 166.707031 C 227.011719 169.683594 222.058594 170.015625 221.007812 167.113281 C 220.671875 166.183594 220.34375 165.929688 218.703125 165.335938 C 216.636719 164.589844 211.667969 162.136719 209.402344 160.75 L 208 159.890625 L 209.878906 162.070312 C 210.910156 163.273438 212.675781 165.507812 213.800781 167.042969 C 217.9375 172.6875 217.453125 172.234375 220.980469 173.734375 C 225.175781 175.515625 227.058594 176.789062 229.917969 179.78125 C 232.613281 182.605469 233.382812 184.027344 232.617188 184.792969 C 232.171875 185.238281 231.878906 185.121094 229.5 183.5625 C 226.195312 181.394531 222.4375 178.886719 221.605469 178.289062 C 221.152344 177.964844 221.492188 178.859375 222.769531 181.359375 C 224.421875 184.589844 224.773438 185.054688 226.980469 186.882812 C 232.0625 191.085938 237.457031 199.175781 235.84375 200.171875 C 235.421875 200.433594 231.792969 197.230469 229.660156 194.71875 C 228.730469 193.625 227.972656 192.804688 227.972656 192.898438 C 227.972656 192.992188 228.324219 194 228.753906 195.144531 C 230.710938 200.339844 232.886719 209.652344 233.855469 216.945312 C 234.535156 222.082031 234.617188 235.425781 234.003906 240.683594 C 233.601562 244.160156 233.613281 244.457031 234.25 246.777344 C 234.617188 248.121094 235.132812 249.636719 235.398438 250.148438 C 236.105469 251.515625 238.351562 252.191406 237.847656 250.882812 C 237.753906 250.628906 237.394531 250.421875 237.050781 250.421875 C 236.183594 250.421875 236.441406 249.347656 237.34375 249.21875 C 238.238281 249.089844 239.628906 250.453125 239.628906 251.460938 C 239.628906 252.898438 237.867188 253.816406 236.484375 253.101562 C 235.335938 252.507812 234.503906 251.324219 233.769531 249.253906 C 233 247.074219 232.710938 247.652344 232.703125 251.367188 C 232.699219 254.820312 233.433594 259.804688 234.171875 261.367188 C 234.730469 262.542969 235.945312 263.511719 236.464844 263.191406 C 236.972656 262.875 236.855469 262.078125 236.296875 262.078125 C 235.648438 262.078125 235.835938 261.148438 236.578125 260.695312 C 237.046875 260.40625 237.28125 260.5 237.917969 261.230469 C 239.527344 263.085938 238.246094 265.492188 235.847656 265.109375 C 233.585938 264.75 232.164062 261.878906 231.785156 256.914062 L 231.597656 254.425781 L 230.382812 258.644531 C 229.714844 260.964844 228.820312 264.308594 228.390625 266.070312 L 227.617188 269.273438 L 228.300781 270.855469 C 228.929688 272.324219 229.035156 272.417969 229.753906 272.144531 C 230.769531 271.757812 232.5625 272.496094 232.855469 273.421875 C 233.207031 274.523438 232.738281 276.214844 231.941406 276.742188 C 230.585938 277.628906 228.53125 276.179688 228.46875 274.285156 C 228.421875 273.636719 228.230469 273.035156 227.886719 272.484375 C 227.347656 271.710938 227.34375 271.71875 227.277344 273.746094 C 227.144531 277.683594 227.261719 278.332031 228.285156 279.355469 C 229.019531 280.089844 229.234375 280.585938 229.234375 281.546875 C 229.234375 284.152344 226.886719 285.414062 225.449219 283.582031 C 224.722656 282.660156 224.738281 281.058594 225.480469 280.167969 C 225.855469 279.714844 226.109375 271.847656 225.75 271.847656 C 225.652344 271.847656 225.261719 272.589844 224.882812 273.5 C 223.054688 277.914062 216.886719 288.203125 214.816406 290.296875 C 214.316406 290.808594 212.722656 292.710938 211.28125 294.53125 C 208.054688 298.601562 199.246094 307.433594 195.210938 310.644531 C 179.050781 323.503906 160.03125 331.273438 139.804688 333.277344 C 135.964844 333.65625 123.121094 333.632812 119.28125 333.238281 Z M 143.066406 330.628906 C 161.15625 328.046875 177.007812 321.527344 191.273438 310.800781 C 201.910156 302.804688 211.753906 291.640625 218.261719 280.195312 C 220.667969 275.964844 220.695312 276.101562 217.820312 277.976562 C 216.390625 278.914062 215.023438 279.886719 214.792969 280.140625 C 214.558594 280.394531 213.898438 281.113281 213.328125 281.738281 C 212.527344 282.613281 212.042969 282.871094 211.230469 282.867188 C 209.992188 282.863281 209.617188 282.652344 209.105469 281.683594 C 208.601562 280.726562 209.1875 279.515625 210.617188 278.554688 C 211.855469 277.71875 213.050781 277.628906 213.808594 278.3125 C 214.289062 278.746094 214.523438 278.667969 216.332031 277.460938 C 219.308594 275.472656 222.210938 272.617188 222.964844 270.941406 C 223.867188 268.929688 226.085938 263.371094 226.085938 263.125 C 226.085938 263.015625 225.398438 263.90625 224.554688 265.101562 C 222.40625 268.15625 218.574219 271.699219 216.210938 272.816406 C 213.902344 273.910156 212.082031 274 210.332031 273.105469 C 208.226562 272.03125 207.863281 270.488281 209.363281 268.984375 C 210.394531 267.957031 212.175781 267.71875 212.84375 268.523438 C 213.394531 269.1875 212.96875 269.640625 211.792969 269.640625 C 209.40625 269.640625 209.019531 271.519531 211.269531 272.195312 C 213.035156 272.722656 214.394531 272.339844 216.851562 270.609375 C 220.605469 267.976562 224 263.84375 227.03125 258.214844 C 228.074219 256.285156 229.207031 253.261719 229.234375 252.34375 C 229.238281 252.273438 228.691406 253.050781 228.027344 254.074219 C 225.898438 257.347656 222.734375 259.875 220.761719 259.875 C 218.964844 259.875 217.265625 258.488281 217.265625 257.023438 C 217.265625 256.152344 218.375 254.449219 219.230469 254.007812 C 220.554688 253.320312 222.066406 253.925781 221.929688 255.089844 C 221.855469 255.710938 221.644531 255.890625 220.972656 255.917969 C 219.925781 255.964844 219.320312 256.507812 219.578125 257.175781 C 220.234375 258.890625 223.859375 256.390625 226.933594 252.105469 C 230.039062 247.78125 231.074219 244.242188 231.574219 236.242188 L 231.742188 233.566406 L 231.167969 235.640625 C 230.125 239.414062 228.085938 242.304688 224.933594 244.46875 C 224.199219 244.976562 221.980469 246.152344 220 247.082031 C 218.023438 248.011719 216.308594 248.929688 216.1875 249.125 C 216.0625 249.328125 215.882812 249.445312 215.648438 249.476562 C 215.472656 249.476562 217.097656 247.597656 219.265625 245.300781 C 225.070312 239.144531 228.628906 234.457031 230.503906 230.503906 C 230.972656 229.515625 231.449219 228.792969 231.558594 228.902344 C 232.117188 229.460938 231.445312 219.101562 230.554688 213.402344 C 230.308594 211.832031 230.308594 211.832031 230.070312 214.613281 C 229.9375 216.144531 229.554688 218.289062 229.21875 219.382812 C 228.503906 221.691406 226.535156 224.796875 225.0625 225.9375 C 224.5 226.371094 222.625 228.015625 220.894531 229.59375 C 218.128906 232.121094 216.949219 232.917969 216.949219 232.273438 C 216.949219 232.167969 217.351562 231.566406 217.839844 230.933594 C 218.714844 229.804688 220.132812 227.355469 222.230469 223.34375 C 222.816406 222.230469 224.117188 219.816406 225.121094 217.988281 C 227.140625 214.3125 228.441406 211.230469 228.78125 209.308594 C 228.90625 208.613281 229.109375 207.90625 229.238281 207.730469 C 229.65625 207.164062 226.621094 196.515625 224.851562 192.34375 C 224.339844 191.136719 224.335938 191.140625 224.453125 194.390625 C 224.570312 197.785156 224.222656 200.117188 222.949219 204.382812 C 222.367188 206.339844 222.1875 206.628906 221.539062 206.628906 L 220.800781 206.628906 L 220.566406 201.066406 C 220.417969 197.441406 220.46875 193.820312 220.714844 190.199219 C 220.925781 187.28125 221.003906 184.464844 220.886719 183.9375 C 220.597656 182.613281 217.976562 177.921875 214.910156 173.234375 C 212.320312 169.269531 207.253906 162.664062 206.996094 162.917969 C 206.921875 162.992188 207.222656 163.878906 207.671875 164.886719 C 208.117188 165.894531 208.808594 168.101562 209.207031 169.792969 C 209.632812 171.59375 210.390625 173.691406 211.035156 174.859375 C 212.101562 176.789062 212.175781 176.851562 213.28125 176.765625 C 214.710938 176.648438 215.554688 177.09375 216.335938 178.371094 C 218.375 181.71875 214.996094 185.097656 212.363281 182.347656 C 211.578125 181.53125 211.4375 181.128906 211.433594 179.71875 C 211.429688 178.136719 210.535156 175.753906 209.945312 175.753906 C 209.8125 175.753906 209.699219 176.214844 209.695312 176.777344 C 209.667969 177.539062 209.566406 178.292969 209.402344 179.039062 C 209.1875 179.957031 209.230469 180.5 209.566406 181.148438 C 210.574219 183.101562 209.792969 186.441406 208.105469 187.375 C 206.261719 188.394531 204.664062 186.875 204.664062 184.101562 C 204.664062 182.136719 205.34375 180.929688 206.703125 180.480469 C 207.46875 180.230469 207.875 179.871094 208.011719 179.324219 C 208.300781 178.171875 207.945312 170.6875 207.554688 169.769531 C 207.226562 168.992188 207.222656 168.992188 207.203125 169.699219 C 207.191406 170.09375 206.953125 170.945312 206.675781 171.589844 C 206.394531 172.234375 206.191406 173.445312 206.21875 174.277344 C 206.269531 175.65625 206.15625 175.910156 205.03125 177.035156 C 203.589844 178.476562 203.03125 178.5625 201.972656 177.5 C 199.984375 175.511719 202.066406 170.835938 204.523438 171.777344 C 205.25 172.058594 205.964844 170.074219 206.148438 167.253906 L 206.304688 164.882812 L 204.558594 161.417969 C 202.957031 158.25 202.558594 157.722656 199.894531 155.273438 C 186.976562 143.394531 173.144531 135.601562 157.148438 131.183594 C 148.511719 128.800781 142.242188 127.882812 132.9375 127.644531 C 125.375 127.449219 121.296875 127.71875 112.667969 128.976562 C 93.253906 131.808594 73.890625 141.523438 59.023438 155.886719 C 51.007812 163.628906 45.230469 171.285156 39.390625 181.898438 L 38.179688 184.101562 L 39.742188 182.730469 C 40.902344 181.761719 42.128906 180.886719 43.421875 180.105469 C 44.582031 179.414062 45.617188 178.582031 45.722656 178.257812 C 46.039062 177.261719 47.726562 176.066406 48.8125 176.074219 C 49.996094 176.078125 50.378906 176.296875 50.882812 177.257812 C 51.921875 179.226562 47.609375 182.347656 46.195312 180.644531 C 45.863281 180.246094 45.695312 180.242188 44.976562 180.621094 C 41.816406 182.28125 36.953125 186.917969 35.914062 189.261719 C 35.082031 191.132812 32.640625 197.675781 32.640625 198.03125 C 32.640625 198.152344 33.375 197.054688 34.269531 195.589844 C 36.515625 191.914062 40.976562 187.449219 43.6875 186.167969 C 46.089844 185.03125 47.882812 184.933594 49.65625 185.835938 C 51.761719 186.910156 52.125 188.457031 50.625 189.957031 C 49.59375 190.984375 47.8125 191.222656 47.144531 190.417969 C 46.59375 189.753906 47.019531 189.300781 48.195312 189.300781 C 50.582031 189.300781 50.96875 187.421875 48.71875 186.746094 C 46.953125 186.21875 45.59375 186.605469 43.136719 188.332031 C 38.894531 191.308594 35.328125 195.914062 32.011719 202.691406 C 29.851562 207.105469 29.027344 210.152344 30.976562 206.507812 C 33.105469 202.527344 36.925781 199.070312 39.191406 199.070312 C 40.960938 199.070312 42.722656 200.507812 42.722656 201.949219 C 42.722656 202.796875 41.601562 204.5 40.757812 204.9375 C 39.433594 205.621094 37.921875 205.015625 38.058594 203.855469 C 38.132812 203.230469 38.34375 203.050781 39.015625 203.023438 C 40.0625 202.980469 40.667969 202.433594 40.410156 201.769531 C 39.984375 200.652344 37.867188 201.453125 35.808594 203.507812 C 33.042969 206.269531 30.863281 209.921875 29.242188 214.527344 C 27.109375 220.574219 27.15625 236.253906 29.34375 247.902344 C 30.539062 254.28125 33.601562 264.714844 35.160156 267.738281 L 35.734375 268.855469 L 35.574219 265.074219 C 35.40625 261.101562 35.679688 259.121094 37.039062 254.558594 C 37.625 252.601562 37.804688 252.3125 38.449219 252.3125 C 39.191406 252.3125 39.191406 252.3125 39.421875 257.859375 C 39.570312 261.539062 39.515625 265.21875 39.261719 268.894531 C 39.050781 271.914062 38.972656 274.910156 39.089844 275.554688 C 39.640625 278.570312 47.433594 290.515625 52.601562 296.265625 L 53.734375 297.523438 L 52.511719 294.53125 C 51.835938 292.882812 51.035156 290.367188 50.730469 288.9375 C 50.402344 287.390625 49.710938 285.480469 49.019531 284.214844 C 47.886719 282.140625 47.832031 282.089844 46.710938 282.179688 C 45.277344 282.292969 44.433594 281.851562 43.652344 280.570312 C 41.601562 277.203125 44.976562 273.824219 47.625 276.59375 C 48.410156 277.410156 48.550781 277.8125 48.554688 279.222656 C 48.558594 280.804688 49.453125 283.1875 50.042969 283.1875 C 50.175781 283.1875 50.289062 282.726562 50.292969 282.164062 C 50.324219 281.402344 50.421875 280.648438 50.585938 279.902344 C 50.800781 278.984375 50.757812 278.441406 50.421875 277.792969 C 49.355469 275.734375 50.214844 272.296875 51.992188 271.484375 C 53.835938 270.648438 55.324219 272.148438 55.324219 274.839844 C 55.324219 276.804688 54.644531 278.011719 53.285156 278.460938 C 52.519531 278.710938 52.113281 279.074219 51.976562 279.617188 C 51.6875 280.773438 52.042969 288.253906 52.433594 289.175781 C 52.761719 289.953125 52.765625 289.953125 52.785156 289.242188 C 52.796875 288.847656 53.035156 287.996094 53.3125 287.351562 C 53.59375 286.710938 53.800781 285.5 53.769531 284.664062 C 53.71875 283.289062 53.832031 283.035156 54.957031 281.90625 C 56.398438 280.464844 56.957031 280.382812 58.015625 281.441406 C 60.003906 283.429688 57.921875 288.105469 55.464844 287.164062 C 54.738281 286.886719 54.023438 288.871094 53.839844 291.691406 L 53.679688 294.058594 L 55.617188 297.910156 C 57.503906 301.667969 57.636719 301.839844 60.925781 304.789062 C 77.792969 319.90625 97.222656 328.539062 120.070312 331.066406 C 123.945312 331.496094 139.007812 331.210938 143.070312 330.628906 Z M 126.589844 330.269531 C 119.378906 328.328125 113.464844 323.875 110.714844 318.316406 C 109.488281 315.835938 105.097656 303.839844 105.109375 302.992188 C 105.113281 302.453125 106.511719 304.046875 110.3125 308.933594 C 117.421875 318.070312 126.246094 326.878906 131.761719 330.347656 C 132.648438 330.90625 128.734375 330.847656 126.589844 330.269531 Z M 130.253906 327.453125 C 126.140625 324.363281 122.0625 320.613281 117.617188 315.828125 C 114.183594 312.132812 112.261719 309.871094 106.679688 302.960938 L 105.890625 301.988281 L 107.246094 302.203125 C 108.949219 302.472656 116.386719 304.703125 118.980469 305.71875 C 123.335938 307.425781 127.078125 310.863281 128.914062 314.839844 C 129.789062 316.730469 133.285156 329.140625 133.023438 329.410156 C 132.984375 329.449219 131.742188 328.566406 130.253906 327.453125 Z M 102.0625 326.914062 C 101.136719 326.445312 100.179688 326.039062 99.195312 325.695312 C 93.496094 323.730469 88.527344 319.632812 85.480469 314.378906 C 84.160156 312.097656 82.496094 306.660156 81.804688 302.34375 C 81.453125 300.144531 80.9375 297.683594 80.667969 296.878906 C 80.394531 296.074219 80.25 295.203125 80.351562 294.9375 C 80.679688 294.09375 82.90625 297.320312 86.371094 303.664062 C 90.910156 311.964844 96.542969 320.222656 99.84375 323.414062 C 101.265625 324.785156 102.835938 326.199219 103.335938 326.550781 C 104.648438 327.480469 103.648438 327.765625 102.0625 326.914062 Z M 101.871094 323.730469 C 97.9375 320.300781 93.042969 313.28125 87.265625 302.777344 C 85.898438 300.296875 84.046875 297.285156 83.144531 296.085938 C 82.089844 294.679688 81.671875 293.898438 81.972656 293.898438 C 82.941406 293.898438 87.488281 295.867188 89.972656 297.359375 C 94.863281 300.300781 98.304688 303.613281 100.023438 307.03125 C 101.140625 309.261719 102.21875 313.539062 102.914062 318.507812 C 103.277344 321.117188 103.773438 323.8125 104.011719 324.488281 C 104.25 325.167969 104.378906 325.722656 104.300781 325.722656 C 104.21875 325.722656 103.125 324.824219 101.871094 323.730469 Z M 70.777344 311.015625 C 66.941406 308.503906 63.753906 304.066406 62.703125 299.785156 C 62.015625 296.980469 62.238281 293.152344 63.367188 288.386719 C 63.816406 286.480469 64.328125 283.929688 64.503906 282.714844 C 64.679688 281.503906 64.933594 280.398438 65.066406 280.257812 C 65.199219 280.121094 65.402344 281.433594 65.519531 283.175781 C 65.765625 286.9375 67.957031 300 68.902344 303.351562 C 69.605469 305.835938 71.1875 309.421875 72.34375 311.148438 C 73.210938 312.445312 72.921875 312.417969 70.777344 311.015625 Z M 74.03125 311.203125 C 73.273438 310.257812 71.886719 307.160156 70.863281 304.140625 C 69.675781 300.636719 67.488281 290.246094 67.011719 285.867188 C 66.46875 280.835938 66.378906 279.722656 66.515625 279.722656 C 66.59375 279.722656 68.203125 281.652344 70.09375 284.011719 C 76.550781 292.066406 77.480469 295.757812 75.507812 305.535156 C 74.996094 308.058594 74.535156 310.46875 74.484375 310.886719 C 74.402344 311.511719 74.324219 311.566406 74.03125 311.203125 Z M 32.324219 251.164062 C 32.324219 249.597656 34.085938 245.3125 37.554688 238.449219 C 39.695312 234.203125 41.914062 229.996094 42.480469 229.101562 L 43.511719 227.472656 L 43.507812 233.355469 C 43.503906 238.78125 43.449219 239.378906 42.769531 241.058594 C 41.867188 243.308594 39.542969 245.878906 35.394531 249.210938 C 33.347656 250.855469 32.324219 251.507812 32.324219 251.164062 Z M 30.25 249.398438 C 29.777344 246.542969 29.992188 242.140625 30.714844 239.757812 C 31.484375 237.222656 33.359375 234.265625 35.0625 232.894531 C 35.726562 232.363281 37.597656 230.703125 39.222656 229.203125 C 41.808594 226.824219 43.039062 226.003906 43.039062 226.667969 C 43.039062 226.773438 42.636719 227.375 42.148438 228.007812 C 41.273438 229.136719 39.855469 231.585938 37.757812 235.597656 C 37.171875 236.714844 35.871094 239.125 34.867188 240.953125 C 32.789062 244.738281 31.503906 247.816406 31.195312 249.734375 C 31.078125 250.460938 30.878906 251.050781 30.753906 251.050781 C 30.625 251.050781 30.398438 250.308594 30.25 249.398438 Z M 214.597656 247.746094 C 214.707031 247.226562 215.128906 245.21875 215.53125 243.285156 C 215.9375 241.351562 216.554688 239.113281 216.90625 238.316406 C 217.820312 236.25 220.433594 233.796875 223.722656 231.917969 C 225.28125 231.027344 227.335938 229.714844 228.285156 229.003906 C 229.238281 228.292969 230.0625 227.847656 230.117188 228.015625 C 230.574219 229.390625 223.167969 239.585938 217.277344 245.695312 C 214.785156 248.28125 214.417969 248.5625 214.597656 247.746094 Z M 216.480469 225.585938 C 216.480469 220.160156 216.535156 219.5625 217.214844 217.882812 C 218.121094 215.632812 220.445312 213.066406 224.589844 209.734375 C 226.636719 208.085938 227.660156 207.4375 227.660156 207.777344 C 227.660156 209.34375 225.898438 213.628906 222.433594 220.492188 C 220.289062 224.738281 218.074219 228.945312 217.507812 229.839844 L 216.476562 231.472656 Z M 29.804688 230.894531 C 29.804688 229.824219 33.515625 224.066406 37.015625 219.707031 C 39.449219 216.671875 45.257812 210.320312 45.4375 210.496094 C 45.667969 210.730469 43.679688 219.269531 43.070312 220.648438 C 42.179688 222.664062 39.554688 225.140625 36.421875 226.921875 C 34.949219 227.761719 33.035156 228.96875 32.167969 229.609375 C 30.066406 231.160156 29.804688 231.300781 29.804688 230.894531 Z M 28.421875 229.765625 C 27.757812 228.027344 28.707031 222.617188 30.164062 219.851562 C 31.9375 216.476562 34.371094 214.5 39.988281 211.863281 C 41.964844 210.933594 43.683594 210.011719 43.800781 209.820312 C 43.925781 209.617188 44.105469 209.496094 44.339844 209.464844 C 44.515625 209.464844 42.890625 211.34375 40.726562 213.640625 C 34.910156 219.804688 31.359375 224.484375 29.476562 228.453125 C 28.875 229.722656 28.558594 230.117188 28.421875 229.765625 Z M 189.894531 174.929688 C 183.425781 166.863281 182.488281 163.125 184.5 153.382812 C 185.015625 150.871094 185.441406 148.488281 185.441406 148.089844 C 185.441406 147.675781 185.582031 147.445312 185.765625 147.558594 C 186.332031 147.910156 188.023438 151.558594 189.121094 154.800781 C 190.308594 158.304688 192.5 168.695312 192.972656 173.074219 C 193.515625 178.105469 193.609375 179.21875 193.46875 179.21875 C 193.394531 179.21875 191.785156 177.289062 189.894531 174.929688 Z M 194.46875 175.769531 C 194.226562 172.074219 192.046875 158.996094 191.113281 155.644531 C 190.367188 152.976562 189.023438 149.886719 187.851562 148.164062 C 187.402344 147.503906 187.089844 146.90625 187.160156 146.839844 C 187.226562 146.773438 188.101562 147.238281 189.101562 147.878906 C 193 150.375 196.21875 154.8125 197.285156 159.160156 C 197.972656 161.960938 197.75 165.792969 196.621094 170.554688 C 196.171875 172.460938 195.652344 175.015625 195.46875 176.226562 C 195.285156 177.441406 195.03125 178.546875 194.90625 178.683594 C 194.78125 178.820312 194.585938 177.511719 194.46875 175.769531 Z M 174.847656 163.992188 C 168.183594 161.289062 162.261719 156.480469 159.964844 151.910156 C 158.84375 149.679688 157.769531 145.402344 157.074219 140.4375 C 156.710938 137.824219 156.214844 135.125 155.972656 134.445312 C 155.429688 132.90625 155.597656 132.976562 158.472656 135.519531 C 162.105469 138.730469 167.066406 145.894531 172.546875 155.851562 C 174.007812 158.503906 175.941406 161.660156 176.84375 162.859375 C 178.765625 165.421875 178.601562 165.515625 174.847656 163.992188 Z M 178.085938 162.792969 C 177.417969 161.9375 175.402344 158.550781 173.609375 155.265625 C 169.078125 146.976562 163.441406 138.71875 160.140625 135.527344 C 158.722656 134.15625 157.136719 132.726562 156.617188 132.351562 L 155.671875 131.664062 L 156.617188 131.664062 C 157.136719 131.664062 157.832031 131.871094 158.160156 132.117188 C 158.488281 132.367188 159.480469 132.804688 160.367188 133.09375 C 166.171875 134.976562 171.410156 139.226562 174.507812 144.5625 C 175.824219 146.835938 177.488281 152.277344 178.175781 156.546875 C 178.523438 158.71875 179.046875 161.242188 179.34375 162.152344 C 180.082031 164.441406 179.574219 164.703125 178.085938 162.792969 Z M 151.574219 156.542969 C 149.148438 155.921875 142.867188 153.949219 141.0625 153.246094 C 136.648438 151.515625 132.917969 148.101562 131.074219 144.105469 C 130.199219 142.210938 126.699219 129.804688 126.964844 129.53125 C 127.121094 129.371094 132.683594 133.738281 135.386719 136.148438 C 139.035156 139.394531 145.382812 146.195312 149.457031 151.226562 C 151.140625 153.304688 152.859375 155.421875 153.269531 155.929688 L 154.019531 156.851562 L 153.269531 156.820312 C 152.695312 156.777344 152.132812 156.683594 151.574219 156.546875 Z M 153.296875 154.554688 C 152.511719 153.652344 150.683594 151.375 149.234375 149.496094 C 142.730469 141.046875 134.308594 132.65625 128.230469 128.5625 C 127.726562 128.222656 128.058594 128.183594 130.308594 128.296875 C 137.726562 128.675781 146.027344 134.078125 149.28125 140.640625 C 150.632812 143.367188 154.996094 155.414062 154.820312 155.925781 C 154.769531 156.078125 154.082031 155.460938 153.296875 154.554688 Z M 230.082031 210.667969 C 229.980469 210.414062 229.90625 210.488281 229.890625 210.855469 C 229.878906 211.1875 229.953125 211.375 230.058594 211.269531 C 230.160156 211.164062 230.175781 210.894531 230.082031 210.667969 Z M 229.761719 209.070312 C 229.671875 208.855469 229.601562 209.035156 229.601562 209.464844 C 229.601562 209.898438 229.671875 210.074219 229.761719 209.859375 C 229.851562 209.597656 229.851562 209.332031 229.761719 209.070312 Z M 84.554688 332.183594 C 83.046875 331.9375 79.679688 331.226562 77.074219 330.605469 C 74.472656 329.988281 71.207031 329.3125 69.820312 329.109375 C 65.738281 328.515625 66.332031 328.132812 73.855469 326.515625 C 76.683594 325.90625 79.589844 325.40625 80.316406 325.410156 C 82.488281 325.417969 85.148438 326.203125 90.296875 328.347656 C 92.980469 329.464844 95.78125 330.539062 96.519531 330.730469 C 100.8125 331.84375 100.554688 331.738281 99.894531 332.109375 C 98.910156 332.660156 87.8125 332.714844 84.554688 332.183594 Z M 56.269531 324.058594 C 53.527344 323.121094 51.636719 321.96875 49.324219 319.832031 C 47.414062 318.0625 45.355469 315.421875 45.652344 315.125 C 45.738281 315.039062 46.789062 315.464844 47.992188 316.070312 C 54.152344 319.171875 60.769531 320.585938 67.453125 320.226562 L 71.550781 320.003906 L 70.648438 320.949219 C 69.40625 322.25 66.527344 323.722656 64.117188 324.292969 C 61.265625 324.964844 58.691406 324.886719 56.269531 324.058594 Z M 58.421875 317.980469 C 54.226562 317.222656 44.902344 313.835938 46.835938 313.773438 C 47.28125 313.761719 49.335938 313.324219 51.40625 312.808594 C 53.472656 312.289062 55.96875 311.863281 56.945312 311.863281 C 60.121094 311.855469 64.390625 313.496094 68.125 316.15625 C 71.46875 318.539062 71.527344 318.480469 65.839844 318.445312 C 63.082031 318.429688 59.753906 318.222656 58.421875 317.980469 Z M 22.847656 252.019531 C 17.144531 250.496094 12.824219 246.167969 11.851562 241.007812 C 11.445312 238.847656 11.421875 231.597656 11.824219 232.007812 C 11.988281 232.171875 12.488281 233.300781 12.945312 234.511719 C 14.800781 239.46875 19.15625 246.316406 22.902344 250.171875 C 24.21875 251.523438 25.210938 252.617188 25.109375 252.601562 C 25.007812 252.582031 23.988281 252.324219 22.847656 252.019531 Z M 23.511719 248.71875 C 19.53125 244.203125 16.5 239.425781 14.285156 234.171875 L 13.210938 231.628906 L 15.917969 233.285156 C 20.644531 236.183594 21.46875 236.933594 22.683594 239.46875 C 23.292969 240.726562 24.089844 243.035156 24.460938 244.59375 C 24.832031 246.152344 25.410156 248.335938 25.75 249.441406 C 26.085938 250.546875 26.3125 251.503906 26.246094 251.566406 C 26.183594 251.632812 24.953125 250.347656 23.515625 248.71875 Z M 243.871094 243.570312 C 239.824219 240.640625 238.257812 238.902344 237.429688 236.40625 C 236.832031 234.617188 235.984375 227.835938 236.3125 227.492188 C 236.480469 227.316406 241.464844 234.558594 242.769531 236.875 C 244.304688 239.597656 246.8125 245.382812 246.457031 245.382812 C 246.414062 245.382812 245.25 244.566406 243.871094 243.570312 Z M 247.4375 244.554688 C 247.351562 244.402344 247.027344 243.5 246.71875 242.546875 C 245.539062 238.882812 242.730469 233.9375 238.777344 228.558594 C 238.027344 227.539062 237.460938 226.65625 237.519531 226.59375 C 237.855469 226.261719 242.015625 228.296875 243.601562 229.570312 C 245.9375 231.445312 247.328125 233.496094 248.191406 236.347656 C 248.804688 238.367188 248.835938 238.8125 248.519531 241.191406 C 248.171875 243.777344 247.75 245.097656 247.4375 244.554688 Z M 20.171875 231.640625 C 17.785156 230.6875 14.847656 228.359375 13.5 226.351562 C 11.953125 224.050781 11.09375 220.898438 11.355469 218.5 C 11.632812 215.941406 12.144531 214.042969 12.460938 214.386719 C 12.601562 214.539062 12.964844 215.445312 13.269531 216.398438 C 14.375 219.847656 17.644531 225.6875 20.671875 229.628906 C 21.96875 231.320312 22.660156 232.46875 22.359375 232.433594 C 22.207031 232.417969 21.222656 232.0625 20.171875 231.640625 Z M 21.070312 227.984375 C 17.476562 222.921875 15.441406 219.171875 13.867188 214.734375 C 13.375 213.351562 13.246094 213.308594 16.4375 215.609375 C 20.152344 218.289062 21.742188 220.089844 22.558594 222.535156 C 23.152344 224.328125 24.003906 231.105469 23.671875 231.449219 C 23.625 231.5 22.453125 229.941406 21.070312 227.984375 Z M 246.09375 226.914062 C 245.746094 226.648438 244.160156 225.65625 242.574219 224.714844 C 240.984375 223.773438 239.292969 222.546875 238.820312 221.984375 C 237.460938 220.378906 236.222656 217.316406 235.191406 213.015625 C 234.671875 210.832031 234.101562 208.777344 233.925781 208.449219 C 232.390625 205.582031 237.921875 211.390625 240.675781 215.535156 C 242.648438 218.472656 244.332031 221.570312 245.726562 224.824219 C 246.328125 226.253906 246.800781 227.417969 246.773438 227.414062 C 246.746094 227.40625 246.4375 227.183594 246.09375 226.914062 Z M 247.375 225.308594 C 245.945312 220.785156 240.953125 212.742188 237.136719 208.820312 C 235.789062 207.433594 234.910156 206.367188 235.191406 206.449219 C 235.46875 206.535156 236.402344 206.769531 237.269531 206.972656 C 242.585938 208.226562 247.003906 212.6875 248.105469 217.910156 C 248.507812 219.832031 248.582031 227.109375 248.199219 227.109375 C 248.054688 227.109375 247.683594 226.300781 247.375 225.308594 Z M 198.832031 146.335938 C 196.085938 145.4375 194.332031 144.546875 191.863281 142.785156 C 188.359375 140.292969 188.253906 140.367188 195.058594 140.542969 C 201.796875 140.722656 204.128906 141.191406 210.5 143.652344 L 213.925781 144.976562 L 211.261719 145.527344 C 209.796875 145.832031 207.753906 146.304688 206.722656 146.582031 C 204.066406 147.292969 201.4375 147.210938 198.832031 146.335938 Z M 211.886719 142.839844 C 208.898438 141.3125 205.761719 140.203125 202.480469 139.503906 C 199.199219 138.804688 195.882812 138.542969 192.53125 138.71875 L 188.4375 138.941406 L 189.335938 137.996094 C 191.300781 135.941406 195.964844 134.179688 199.476562 134.171875 C 201.601562 134.164062 204.367188 134.917969 206.609375 136.113281 C 208.757812 137.257812 212.15625 140.269531 213.496094 142.214844 C 214.941406 144.316406 214.839844 144.355469 211.886719 142.839844 Z M 176.226562 133.042969 C 175.226562 132.800781 172.25 131.691406 169.609375 130.578125 C 166.96875 129.460938 164.238281 128.40625 163.546875 128.230469 C 159.351562 127.160156 159.441406 127.195312 160.078125 126.839844 C 160.40625 126.65625 163.097656 126.4375 166.050781 126.359375 C 172.238281 126.191406 175.675781 126.59375 182.921875 128.339844 C 185.433594 128.945312 188.660156 129.609375 190.089844 129.816406 C 194.257812 130.425781 193.6875 130.800781 186.128906 132.429688 C 180.574219 133.625 179.023438 133.722656 176.226562 133.042969 Z M 187.648438 128.183594 C 186.175781 127.863281 182.632812 127.03125 179.773438 126.332031 C 173.066406 124.695312 168.714844 124.230469 164.300781 124.671875 C 162.472656 124.855469 160.703125 125.085938 160.371094 125.183594 C 160.039062 125.28125 161.042969 124.722656 162.601562 123.945312 C 168.945312 120.777344 174.265625 120.125 179.480469 121.871094 C 183.289062 123.144531 191.089844 127.167969 192.085938 128.371094 C 192.601562 128.988281 191.0625 128.921875 187.648438 128.183594 Z M 137.554688 124.332031 C 135.5625 124.175781 133.605469 123.980469 133.210938 123.898438 C 132.167969 123.683594 132.679688 123.140625 133.925781 123.140625 C 135.421875 123.140625 141.832031 121.242188 147.265625 119.1875 C 153.761719 116.734375 157.445312 115.835938 161.65625 115.679688 C 164.855469 115.5625 165.074219 115.589844 164.492188 116.050781 C 161.308594 118.558594 156.285156 122.03125 154.722656 122.800781 C 150.875 124.695312 146.832031 125.054688 137.554688 124.332031 Z M 133.144531 121.621094 C 133.914062 121.050781 134.648438 120.441406 135.347656 119.785156 C 137.585938 117.722656 142.261719 114.378906 144.328125 113.359375 C 149.222656 110.949219 155.40625 110.519531 160.238281 112.253906 C 161.539062 112.71875 163.0625 113.242188 163.625 113.410156 C 165.417969 113.949219 164.742188 114.316406 161.953125 114.316406 C 160.441406 114.316406 157.847656 114.609375 156.046875 114.980469 C 152.75 115.660156 151.550781 116.03125 141.839844 119.351562 C 138.738281 120.410156 135.335938 121.476562 134.277344 121.714844 C 132.453125 122.128906 132.394531 122.121094 133.144531 121.621094 Z M 133.144531 121.621094 " fill-opacity="1" fill-rule="nonzero"/></g><path fill="#ffffff" d="M 169.199219 280.75 C 140.867188 301.382812 101.027344 295.121094 80.394531 266.789062 C 59.761719 238.457031 66.023438 198.617188 94.355469 177.984375 C 122.6875 157.351562 162.523438 163.613281 183.160156 191.945312 C 203.792969 220.277344 197.53125 260.113281 169.199219 280.75 Z M 142.734375 159.664062 C 104.238281 153.613281 68.125 179.914062 62.074219 218.410156 C 56.019531 256.90625 82.324219 293.019531 120.820312 299.070312 C 159.316406 305.125 195.429688 278.820312 201.480469 240.324219 C 207.53125 201.828125 181.230469 165.714844 142.734375 159.664062 " fill-opacity="1" fill-rule="nonzero"/><path fill="#ffffff" d="M 187.625 235.410156 C 187.378906 235.398438 187.15625 235.542969 187.0625 235.757812 L 150.066406 233.558594 L 141.3125 229.175781 L 149.976562 224.835938 L 187.0625 222.632812 C 187.15625 222.847656 187.378906 222.992188 187.625 222.976562 L 191.394531 222.753906 C 191.632812 224.925781 191.757812 227.132812 191.757812 229.367188 C 191.757812 231.484375 191.644531 233.578125 191.429688 235.636719 Z M 187.394531 251.828125 L 184.125 250.191406 C 183.902344 250.078125 183.640625 250.125 183.46875 250.285156 L 152.332031 234.691406 L 187.003906 236.753906 C 187.070312 236.976562 187.273438 237.144531 187.523438 237.160156 L 191.222656 237.378906 C 190.546875 242.417969 189.242188 247.261719 187.394531 251.828125 Z M 180.285156 264.613281 L 177.121094 262.527344 C 176.914062 262.390625 176.652344 262.402344 176.460938 262.542969 L 145.523438 242.140625 L 140.132812 233.96875 L 149.804688 234.542969 L 183.023438 251.175781 C 182.996094 251.410156 183.117188 251.648438 183.339844 251.757812 L 186.710938 253.445312 C 184.964844 257.410156 182.804688 261.152344 180.285156 264.613281 Z M 168.695312 276.605469 L 166.699219 273.574219 C 166.5625 273.367188 166.3125 273.277344 166.085938 273.328125 L 146.914062 244.257812 L 175.910156 263.375 C 175.859375 263.605469 175.949219 263.851562 176.15625 263.988281 L 179.230469 266.015625 C 176.171875 269.964844 172.628906 273.527344 168.695312 276.605469 Z M 156.171875 284.160156 L 154.46875 280.753906 C 154.355469 280.535156 154.121094 280.414062 153.886719 280.4375 L 137.292969 247.300781 L 136.710938 237.527344 L 144.800781 242.863281 L 165.25 273.878906 C 165.113281 274.066406 165.097656 274.332031 165.234375 274.539062 L 167.300781 277.667969 C 163.851562 280.210938 160.125 282.394531 156.171875 284.160156 Z M 140.132812 288.769531 L 139.917969 285.113281 C 139.902344 284.863281 139.734375 284.664062 139.507812 284.59375 L 137.441406 249.832031 L 152.996094 280.886719 C 152.835938 281.058594 152.789062 281.316406 152.902344 281.539062 L 154.558594 284.851562 C 150.003906 286.730469 145.167969 288.0625 140.132812 288.769531 Z M 138.390625 288.984375 C 136.21875 289.222656 134.011719 289.347656 131.777344 289.347656 C 129.660156 289.347656 127.566406 289.238281 125.507812 289.019531 L 125.734375 285.21875 C 125.746094 284.96875 125.601562 284.75 125.386719 284.652344 L 127.585938 247.65625 L 131.96875 238.902344 L 136.308594 247.566406 L 138.511719 284.652344 C 138.296875 284.75 138.152344 284.96875 138.167969 285.21875 Z M 123.984375 285.113281 L 123.765625 288.8125 C 118.726562 288.136719 113.878906 286.835938 109.316406 284.984375 L 110.953125 281.714844 C 111.066406 281.492188 111.019531 281.230469 110.859375 281.058594 L 126.453125 249.921875 L 124.390625 284.59375 C 124.167969 284.664062 124 284.863281 123.984375 285.113281 Z M 107.699219 284.300781 C 103.734375 282.554688 99.992188 280.394531 96.53125 277.875 L 98.617188 274.710938 C 98.753906 274.503906 98.738281 274.242188 98.601562 274.050781 L 119.003906 243.113281 L 127.175781 237.722656 L 126.601562 247.394531 L 109.96875 280.613281 C 109.734375 280.589844 109.496094 280.707031 109.386719 280.929688 Z M 84.539062 266.289062 L 87.570312 264.289062 C 87.777344 264.152344 87.867188 263.90625 87.816406 263.675781 L 116.886719 244.507812 L 97.769531 273.5 C 97.539062 273.449219 97.292969 273.539062 97.15625 273.746094 L 95.128906 276.820312 C 91.179688 273.761719 87.617188 270.222656 84.539062 266.289062 Z M 76.984375 253.761719 L 80.386719 252.058594 C 80.609375 251.945312 80.730469 251.710938 80.707031 251.476562 L 113.84375 234.882812 L 123.617188 234.300781 L 118.28125 242.390625 L 87.265625 262.84375 C 87.078125 262.703125 86.8125 262.6875 86.605469 262.828125 L 83.476562 264.890625 C 80.933594 261.441406 78.75 257.714844 76.984375 253.761719 Z M 72.375 237.722656 L 76.03125 237.507812 C 76.28125 237.492188 76.480469 237.324219 76.550781 237.097656 L 111.3125 235.03125 L 80.257812 250.585938 C 80.085938 250.425781 79.828125 250.378906 79.605469 250.492188 L 76.292969 252.148438 C 74.414062 247.59375 73.082031 242.757812 72.375 237.722656 Z M 71.796875 229.367188 C 71.796875 227.25 71.90625 225.160156 72.125 223.097656 L 75.929688 223.324219 C 76.175781 223.339844 76.394531 223.195312 76.492188 222.980469 L 113.488281 225.175781 L 122.242188 229.558594 L 113.578125 233.898438 L 76.492188 236.101562 C 76.394531 235.886719 76.175781 235.742188 75.929688 235.757812 L 72.160156 235.980469 C 71.921875 233.808594 71.796875 231.601562 71.796875 229.367188 Z M 76.160156 206.90625 L 79.429688 208.542969 C 79.652344 208.65625 79.914062 208.609375 80.085938 208.449219 L 111.222656 224.042969 L 76.550781 221.984375 C 76.480469 221.757812 76.28125 221.589844 76.03125 221.574219 L 72.332031 221.355469 C 73.007812 216.316406 74.3125 211.472656 76.160156 206.90625 Z M 83.269531 194.125 L 86.433594 196.207031 C 86.640625 196.347656 86.902344 196.332031 87.09375 196.191406 L 118.03125 216.59375 L 123.421875 224.765625 L 113.75 224.191406 L 80.53125 207.558594 C 80.554688 207.324219 80.4375 207.089844 80.214844 206.976562 L 76.84375 205.289062 C 78.589844 201.324219 80.75 197.585938 83.269531 194.125 Z M 94.855469 182.128906 L 96.855469 185.160156 C 96.992188 185.367188 97.238281 185.457031 97.46875 185.40625 L 116.636719 214.476562 L 87.644531 195.359375 C 87.695312 195.128906 87.605469 194.882812 87.398438 194.746094 L 84.324219 192.71875 C 87.382812 188.769531 90.921875 185.210938 94.855469 182.128906 Z M 107.382812 174.574219 L 109.085938 177.976562 C 109.199219 178.199219 109.433594 178.320312 109.667969 178.296875 L 126.261719 211.433594 L 126.84375 221.207031 L 118.753906 215.875 L 98.300781 184.855469 C 98.441406 184.667969 98.457031 184.40625 98.316406 184.195312 L 96.253906 181.066406 C 99.703125 178.523438 103.429688 176.339844 107.382812 174.574219 Z M 123.417969 169.96875 L 123.636719 173.621094 C 123.652344 173.871094 123.820312 174.074219 124.046875 174.140625 L 126.113281 208.90625 L 110.558594 177.847656 C 110.71875 177.675781 110.765625 177.417969 110.652344 177.195312 L 108.996094 173.882812 C 113.550781 172.003906 118.386719 170.671875 123.417969 169.96875 Z M 125.164062 169.75 C 127.335938 169.511719 129.542969 169.386719 131.777344 169.386719 C 133.894531 169.386719 135.984375 169.5 138.046875 169.714844 L 137.820312 173.519531 C 137.804688 173.765625 137.949219 173.988281 138.164062 174.082031 L 135.96875 211.078125 L 131.582031 219.832031 L 127.246094 211.167969 L 125.042969 174.082031 C 125.257812 173.988281 125.402344 173.765625 125.386719 173.519531 Z M 139.570312 173.621094 L 139.789062 169.921875 C 144.828125 170.597656 149.671875 171.902344 154.238281 173.75 L 152.601562 177.019531 C 152.488281 177.242188 152.535156 177.503906 152.695312 177.675781 L 137.101562 208.8125 L 139.160156 174.140625 C 139.386719 174.074219 139.554688 173.871094 139.570312 173.621094 Z M 155.855469 174.433594 C 159.820312 176.179688 163.558594 178.339844 167.019531 180.859375 L 164.9375 184.023438 C 164.796875 184.230469 164.8125 184.492188 164.953125 184.683594 L 144.550781 215.621094 L 136.378906 221.011719 L 136.953125 211.339844 L 153.585938 178.121094 C 153.820312 178.148438 154.054688 178.027344 154.167969 177.804688 Z M 179.015625 192.445312 L 175.984375 194.445312 C 175.777344 194.582031 175.6875 194.828125 175.738281 195.058594 L 146.667969 214.230469 L 165.785156 185.234375 C 166.015625 185.285156 166.261719 185.195312 166.398438 184.988281 L 168.421875 181.914062 C 172.375 184.972656 175.933594 188.515625 179.015625 192.445312 Z M 140.699219 229.984375 L 147.539062 233.410156 L 139.96875 232.957031 C 140.269531 232.269531 140.488281 231.53125 140.613281 230.757812 C 140.652344 230.496094 140.679688 230.238281 140.699219 229.984375 Z M 140.667969 228.382812 C 140.554688 227.34375 140.257812 226.351562 139.8125 225.441406 L 147.449219 224.984375 Z M 139.195312 234.363281 L 143.40625 240.746094 L 137.074219 236.574219 C 137.898438 235.96875 138.617188 235.21875 139.195312 234.363281 Z M 136.773438 221.949219 L 143.15625 217.738281 L 138.980469 224.070312 C 138.375 223.246094 137.628906 222.527344 136.773438 221.949219 Z M 132.390625 220.445312 L 135.816406 213.605469 L 135.367188 221.175781 C 134.679688 220.875 133.941406 220.652344 133.167969 220.53125 C 132.90625 220.492188 132.648438 220.464844 132.390625 220.445312 Z M 127.394531 213.695312 L 130.792969 220.476562 C 129.753906 220.589844 128.761719 220.886719 127.847656 221.332031 Z M 124.570312 234.664062 C 125.175781 235.488281 125.925781 236.207031 126.78125 236.789062 L 120.394531 240.996094 Z M 120.148438 217.988281 L 126.480469 222.164062 C 125.65625 222.769531 124.9375 223.515625 124.355469 224.371094 Z M 122.855469 228.753906 L 116.015625 225.328125 L 123.585938 225.777344 C 123.28125 226.464844 123.0625 227.203125 122.941406 227.976562 C 122.902344 228.238281 122.875 228.496094 122.855469 228.753906 Z M 122.886719 230.351562 C 123 231.390625 123.296875 232.382812 123.742188 233.296875 L 116.105469 233.75 Z M 131.160156 238.289062 L 127.734375 245.128906 L 128.1875 237.558594 C 128.875 237.859375 129.609375 238.082031 130.386719 238.203125 C 130.648438 238.242188 130.90625 238.269531 131.160156 238.289062 Z M 136.160156 245.039062 L 132.761719 238.257812 C 133.800781 238.144531 134.792969 237.847656 135.703125 237.402344 Z M 130.792969 235.632812 C 127.332031 235.089844 124.964844 231.84375 125.511719 228.382812 C 126.054688 224.921875 129.300781 222.554688 132.761719 223.101562 C 136.222656 223.644531 138.589844 226.890625 138.042969 230.351562 C 137.5 233.8125 134.253906 236.179688 130.792969 235.632812 Z M 186.570312 204.972656 L 183.167969 206.675781 C 182.945312 206.789062 182.824219 207.023438 182.847656 207.257812 L 149.710938 223.851562 L 139.9375 224.433594 L 145.269531 216.34375 L 176.289062 195.894531 C 176.476562 196.03125 176.738281 196.046875 176.949219 195.910156 L 180.078125 193.84375 C 182.621094 197.292969 184.800781 201.019531 186.570312 204.972656 Z M 191.175781 221.011719 L 187.523438 221.226562 C 187.273438 221.242188 187.070312 221.410156 187.003906 221.636719 L 152.238281 223.703125 L 183.296875 208.148438 C 183.46875 208.308594 183.726562 208.355469 183.949219 208.242188 L 187.261719 206.585938 C 189.140625 211.140625 190.472656 215.976562 191.175781 221.011719 Z M 188.558594 205.378906 C 185.457031 198.039062 181.011719 191.449219 175.355469 185.792969 C 169.695312 180.132812 163.101562 175.6875 155.765625 172.582031 C 148.167969 169.371094 140.097656 167.742188 131.777344 167.742188 C 123.457031 167.742188 115.386719 169.371094 107.789062 172.582031 C 100.449219 175.6875 93.859375 180.132812 88.199219 185.792969 C 82.539062 191.449219 78.097656 198.039062 74.992188 205.378906 C 71.78125 212.976562 70.152344 221.046875 70.152344 229.367188 C 70.152344 237.6875 71.78125 245.757812 74.992188 253.355469 C 78.097656 260.695312 82.539062 267.285156 88.199219 272.945312 C 93.859375 278.601562 100.449219 283.046875 107.789062 286.152344 C 115.386719 289.363281 123.457031 290.992188 131.777344 290.992188 C 140.097656 290.992188 148.167969 289.363281 155.765625 286.152344 C 163.101562 283.046875 169.695312 278.601562 175.355469 272.945312 C 181.011719 267.285156 185.457031 260.695312 188.558594 253.355469 C 191.773438 245.757812 193.402344 237.6875 193.402344 229.367188 C 193.402344 221.046875 191.773438 212.976562 188.558594 205.378906 " fill-opacity="1" fill-rule="nonzero"/><path fill="#ffffff" d="M 132.316406 225.9375 C 130.421875 225.640625 128.644531 226.933594 128.347656 228.828125 C 128.050781 230.722656 129.34375 232.496094 131.238281 232.796875 C 133.132812 233.09375 134.90625 231.800781 135.207031 229.90625 C 135.503906 228.011719 134.210938 226.238281 132.316406 225.9375 " fill-opacity="1" fill-rule="nonzero"/></svg>