<svg xmlns="http://www.w3.org/2000/svg" xmlns:xlink="http://www.w3.org/1999/xlink" width="500" zoomAndPan="magnify" viewBox="0 0 375 374.999991" height="500" preserveAspectRatio="xMidYMid meet" version="1.0"><defs><clipPath id="5404869eec"><path d="M 146.21875 35 L 356.769531 35 L 356.769531 272.5625 L 146.21875 272.5625 Z M 146.21875 35 " clip-rule="nonzero"/></clipPath><clipPath id="fca2c64360"><path d="M 17 111 L 243 111 L 243 348 L 17 348 Z M 17 111 " clip-rule="nonzero"/></clipPath><clipPath id="90ba0568bf"><path d="M 268.066406 133.785156 L 225.359375 367.667969 L -8.523438 324.960938 L 34.183594 91.078125 Z M 268.066406 133.785156 " clip-rule="nonzero"/></clipPath><clipPath id="1192a3dc30"><path d="M 268.066406 133.785156 L 225.359375 367.667969 L -8.523438 324.960938 L 34.183594 91.078125 Z M 268.066406 133.785156 " clip-rule="nonzero"/></clipPath></defs><path fill="#ffffff" d="M 267.316406 95.515625 C 267.730469 95.332031 268.3125 94.738281 268.652344 94.425781 C 270.835938 92.394531 272.960938 90.300781 275.226562 88.355469 C 277.03125 86.804688 278.945312 85.355469 280.914062 84.011719 C 284.703125 81.417969 290.097656 81.503906 294.351562 82.796875 C 294.710938 82.90625 295.078125 83.03125 295.449219 82.96875 C 295.886719 82.898438 296.257812 82.570312 296.4375 82.160156 C 297.085938 80.667969 295.445312 78.324219 294.066406 77.8125 C 293.34375 77.546875 292.578125 77.277344 291.824219 77.25 C 287.660156 77.109375 283.371094 77.710938 279.722656 79.828125 C 274.859375 82.652344 272.46875 87.160156 269.699219 91.832031 C 268.972656 93.054688 267.917969 94.246094 267.316406 95.515625 Z M 287.492188 97.082031 C 284.730469 96.910156 282.390625 97.789062 280.261719 100.0625 C 280.015625 100.324219 280.207031 100.753906 280.566406 100.753906 L 288 100.753906 C 288.488281 100.753906 288.851562 100.3125 288.753906 99.835938 C 288.609375 99.113281 288.480469 98.480469 288.351562 97.835938 C 288.265625 97.417969 287.917969 97.109375 287.492188 97.082031 Z M 316.523438 108.875 C 318.1875 108.242188 319.351562 106.734375 319.144531 104.898438 C 319.113281 104.640625 319.003906 104.230469 318.648438 104.402344 C 316.78125 105.320312 315.921875 106.695312 316 108.53125 C 316.011719 108.796875 316.277344 108.96875 316.523438 108.875 Z M 283.671875 76.972656 C 287.480469 75.988281 291.242188 75.265625 294.976562 77.242188 C 297.871094 78.773438 298.894531 81.292969 297.707031 84.257812 C 297.027344 85.953125 296.253906 87.605469 295.542969 89.285156 C 295.316406 89.816406 295.152344 90.371094 294.800781 91.375 C 299.472656 90.101562 301.527344 86.414062 304.585938 83.816406 C 304.175781 85.664062 303.6875 87.476562 302.75 89.015625 C 301.765625 90.628906 300.355469 91.980469 299.074219 93.511719 C 300.230469 93.910156 301.277344 94.269531 302.324219 94.628906 C 302.332031 94.878906 299.230469 95.328125 297.8125 95.765625 C 297.46875 98.882812 296.855469 100.902344 294.304688 101.414062 C 293.417969 101.59375 292.488281 101.605469 291.578125 101.667969 C 288.53125 101.882812 285.480469 102.089844 282.433594 102.300781 C 282.378906 102.480469 284.839844 104.402344 286.199219 105.019531 C 291.699219 107.496094 297.511719 108.894531 303.453125 109.71875 C 306.296875 110.117188 309.175781 110.300781 312.042969 110.429688 C 313.179688 110.480469 314.113281 109.984375 314.5625 108.917969 C 314.835938 108.28125 314.882812 107.585938 315.125 106.941406 C 315.464844 106.023438 315.898438 105.070312 316.597656 104.363281 C 317.1875 103.765625 318.121094 103.277344 318.988281 103.414062 C 320.039062 103.582031 319.964844 105.414062 319.765625 106.160156 C 319.59375 106.800781 319.261719 107.390625 318.875 107.929688 C 318.492188 108.464844 318.054688 108.957031 317.570312 109.402344 C 317.09375 109.839844 316.488281 110.152344 316.035156 110.605469 C 315.824219 110.820312 315.832031 111.109375 315.820312 111.40625 C 315.785156 112.066406 315.886719 112.730469 316.09375 113.359375 C 316.511719 114.660156 317.355469 115.820312 318.414062 116.675781 C 319.453125 117.519531 320.746094 118.089844 322.09375 118.128906 C 326.042969 118.253906 329.535156 115.574219 331.460938 112.289062 C 332.210938 111.011719 332.671875 109.660156 332.46875 108.160156 C 332.441406 107.953125 332.394531 107.738281 332.246094 107.59375 C 331.78125 107.128906 330.796875 107.527344 330.304688 107.746094 C 329.609375 108.054688 328.988281 108.539062 328.53125 109.148438 C 327.957031 109.917969 327.601562 110.832031 327.042969 111.617188 C 326.894531 111.828125 326.726562 112.039062 326.5 112.167969 C 326.4375 112.199219 326.367188 112.226562 326.300781 112.210938 C 326.050781 112.140625 326.117188 111.121094 326.132812 110.914062 C 326.167969 110.410156 326.304688 109.917969 326.503906 109.457031 C 326.90625 108.535156 327.5625 107.734375 328.308594 107.070312 C 329.023438 106.4375 329.851562 105.714844 330.839844 105.605469 C 331.914062 105.484375 333.046875 106.058594 333.535156 107.035156 C 334.046875 108.046875 333.710938 109.285156 333.375 110.300781 C 332.207031 113.839844 330.011719 116.570312 326.523438 118.179688 C 322.324219 120.117188 318.136719 118.816406 315.933594 114.71875 C 315.28125 113.507812 314.886719 112.15625 314.628906 111.511719 C 310 110.984375 305.75 110.65625 301.554688 109.984375 C 294.011719 108.78125 286.714844 106.78125 280.03125 102.871094 C 278.980469 102.257812 277.371094 102.28125 276.082031 102.460938 C 272.664062 102.941406 269.273438 104.226562 265.867188 102.144531 C 271.117188 102.765625 275.050781 100.296875 278.753906 97.054688 C 282.023438 94.195312 285.679688 92.070312 290.132812 91.457031 C 291.523438 91.265625 293.203125 90.679688 294.042969 89.683594 C 294.976562 88.570312 295.519531 86.804688 295.457031 85.273438 C 295.398438 83.820312 288.34375 81.625 282.472656 85.019531 C 276.34375 88.566406 271.128906 93.195312 266.589844 98.667969 C 265.300781 100.222656 263.433594 100.753906 264.589844 97.507812 C 264.761719 97.023438 265.132812 96.542969 265.441406 96.070312 C 267.292969 93.25 269.328125 90.535156 270.957031 87.589844 C 273.84375 82.359375 277.738281 78.507812 283.671875 76.972656 " fill-opacity="1" fill-rule="nonzero"/><g clip-path="url(#5404869eec)"><path fill="#ffffff" d="M 347.339844 149.722656 C 345.457031 149.324219 344.152344 149.835938 342.988281 151.011719 C 342.851562 151.148438 342.882812 151.378906 343.050781 151.484375 C 344.601562 152.460938 345.601562 152.109375 347.425781 149.976562 C 347.503906 149.886719 347.457031 149.75 347.339844 149.722656 Z M 223.535156 126.453125 C 223.453125 126.414062 223.351562 126.476562 223.355469 126.570312 C 223.402344 128.847656 223.996094 132.292969 224.597656 134.4375 C 225.074219 136.148438 225.863281 138.277344 227.75 138.820312 C 228.136719 138.929688 228.578125 138.960938 228.910156 138.738281 C 229.074219 138.625 229.199219 138.457031 229.300781 138.285156 C 230.421875 136.398438 229.324219 134.085938 228.402344 132.359375 C 227.453125 130.574219 225.464844 127.402344 223.535156 126.453125 Z M 254.160156 65.042969 C 253.398438 66.125 252.699219 67.253906 252.050781 68.410156 C 249 73.835938 246.734375 79.578125 245.425781 85.675781 C 245.257812 86.46875 245.070312 87.265625 244.785156 88.03125 C 244.164062 89.695312 243.582031 91.34375 242.800781 92.945312 C 241.417969 95.796875 239.636719 98.445312 237.496094 100.785156 C 235.3125 103.167969 233.265625 105.6875 231.246094 108.210938 C 228.972656 111.058594 226.699219 113.824219 225.164062 117.148438 C 225.03125 117.441406 224.898438 117.738281 224.777344 118.039062 C 224.367188 119.007812 224.015625 120.003906 223.722656 121.015625 C 223.503906 121.785156 222.941406 123.089844 223.257812 123.878906 C 223.410156 124.226562 223.683594 124.503906 223.949219 124.773438 C 227.042969 127.945312 229.828125 131.34375 230.703125 135.800781 C 230.972656 137.175781 230.085938 139.222656 228.722656 139.746094 C 228.117188 139.980469 227.425781 139.878906 226.824219 139.632812 C 224.964844 138.863281 224.082031 136.96875 223.523438 135.164062 C 222.933594 133.25 222.597656 131.273438 222.300781 129.296875 C 222.085938 127.835938 222.273438 125.238281 220.523438 124.695312 C 219.085938 124.253906 217.410156 124.40625 216.03125 124.964844 C 214.113281 125.746094 212.617188 127.320312 212.1875 129.367188 C 211.371094 133.242188 212.726562 137.359375 214.109375 140.9375 C 215.261719 143.914062 216.539062 146.777344 218.332031 149.425781 C 220.128906 152.074219 222.121094 154.585938 224.335938 156.894531 C 226.027344 158.65625 227.734375 160.550781 229.679688 162.023438 C 231.613281 163.488281 233.789062 164.78125 236.1875 165.3125 C 238.023438 165.71875 239.925781 165.796875 241.785156 165.53125 C 243.003906 165.359375 244.515625 165.09375 245.425781 164.179688 C 245.523438 164.089844 245.621094 163.996094 245.710938 163.898438 C 245.789062 163.808594 245.957031 163.679688 245.761719 163.640625 C 245.59375 163.609375 245.425781 163.625 245.261719 163.605469 C 245.023438 163.578125 244.785156 163.550781 244.546875 163.519531 C 244.074219 163.457031 243.601562 163.390625 243.128906 163.316406 C 242.183594 163.167969 241.242188 163 240.304688 162.8125 C 240.058594 162.765625 239.816406 162.714844 239.574219 162.664062 C 237.550781 162.238281 235.46875 161.882812 233.503906 161.234375 C 232.292969 160.835938 231.058594 160.257812 230.128906 159.363281 C 229.425781 158.691406 228.4375 157.554688 228.835938 156.5 C 228.941406 156.21875 229.160156 155.992188 229.429688 155.855469 C 230.59375 155.269531 231.964844 155.550781 233.191406 155.695312 C 235.027344 155.914062 239.285156 156.921875 239.316406 156.949219 C 237.910156 155.789062 236.804688 154.304688 235.511719 153.03125 C 234.246094 151.785156 232.703125 150.605469 230.90625 150.3125 C 229.367188 150.0625 228.597656 148.941406 228.839844 147.386719 C 229.09375 145.710938 230.320312 144.988281 231.882812 145.101562 C 233.140625 145.191406 233.511719 146.222656 233.972656 147.351562 C 235.992188 152.296875 238.300781 154.96875 241.558594 157.226562 C 240.570312 154.953125 237.773438 150.671875 237.070312 148.511719 C 236.644531 147.214844 236.234375 145.910156 235.914062 144.582031 C 235.621094 143.347656 235.277344 141.960938 235.394531 140.683594 C 235.472656 139.832031 235.855469 138.828125 236.621094 138.359375 C 237.480469 137.832031 238.640625 138.40625 239.382812 138.902344 C 240.195312 139.445312 240.882812 140.167969 241.496094 140.925781 C 242.402344 142.039062 244.226562 146.496094 245.140625 147.601562 C 245.078125 146.527344 243.902344 142.148438 243.816406 141.070312 C 243.539062 137.6875 243.398438 134.285156 243.015625 130.914062 C 242.925781 130.140625 242.796875 129.371094 242.582031 128.621094 C 242.363281 127.847656 241.917969 127.203125 241.648438 126.46875 C 241.214844 125.253906 241.417969 123.660156 242.53125 122.886719 C 243.347656 122.316406 244.367188 122.035156 245.300781 122.5 C 246.164062 122.933594 246.71875 123.808594 246.796875 124.765625 C 246.863281 125.523438 246.65625 126.289062 246.296875 126.964844 C 245.960938 127.59375 245.496094 128.148438 245.148438 128.769531 C 244.574219 129.777344 244.652344 130.902344 244.609375 132.027344 C 244.558594 133.285156 244.554688 134.542969 244.597656 135.800781 C 244.679688 138.308594 244.933594 140.8125 245.332031 143.289062 C 245.585938 144.859375 245.898438 146.417969 246.257812 147.964844 C 246.363281 148.414062 246.605469 148.832031 246.964844 149.714844 C 247.183594 148.816406 247.324219 148.386719 247.394531 147.941406 C 248.15625 142.875 248.734375 137.773438 249.730469 132.75 C 250.390625 129.425781 252.5625 126.972656 255.699219 125.523438 C 257.246094 124.808594 259.09375 124.777344 260.539062 125.75 C 261.917969 126.679688 262.542969 128.351562 262.644531 129.957031 C 262.820312 132.714844 261.730469 135.179688 261.121094 137.796875 C 261.054688 138.085938 260.988281 138.375 260.949219 138.667969 C 260.9375 138.761719 260.976562 139.128906 260.9375 139.191406 C 261.566406 138.257812 266.824219 127.226562 271.058594 123.582031 C 272.140625 122.652344 273.144531 121.582031 273.753906 120.292969 C 274.089844 119.582031 274.269531 118.808594 274.570312 118.082031 C 274.867188 117.355469 275.324219 116.644531 276.023438 116.289062 C 276.972656 115.804688 278.265625 116.070312 278.996094 116.828125 C 279.96875 117.832031 280.003906 119.464844 279.25 120.605469 C 278.699219 121.429688 277.789062 121.988281 276.816406 122.179688 C 276.070312 122.328125 275.292969 122.277344 274.566406 122.488281 C 273.558594 122.777344 272.78125 123.523438 272.105469 124.292969 C 271.371094 125.125 270.632812 125.953125 269.929688 126.816406 C 268.433594 128.648438 267.058594 130.574219 265.808594 132.582031 C 265.382812 133.265625 264.96875 133.957031 264.574219 134.65625 C 263.488281 136.578125 262.519531 138.5625 261.667969 140.597656 C 261.242188 141.613281 260.84375 142.644531 260.480469 143.6875 C 260.15625 144.613281 258.347656 148.429688 258.195312 148.753906 C 258.679688 148.367188 260.152344 146.847656 260.5625 146.355469 C 263.449219 142.890625 267.496094 140.53125 271.871094 139.613281 C 273.367188 139.296875 275.636719 138.75 276.921875 139.894531 C 277.921875 140.792969 277.582031 142.273438 277.035156 143.316406 C 276.101562 145.09375 274.773438 146.6875 273.503906 148.269531 C 271.375 150.917969 268.6875 153.300781 266.03125 155.65625 C 266.457031 155.625 267.394531 155.425781 267.847656 155.34375 C 270.175781 154.925781 272.582031 154.945312 274.9375 154.9375 C 277.523438 154.929688 280.109375 154.988281 282.695312 154.992188 C 282.773438 154.992188 282.851562 154.992188 282.925781 154.992188 C 283.933594 155.011719 284.945312 155.035156 285.949219 155.0625 C 287.378906 155.101562 288.925781 155.113281 290.078125 154.269531 C 290.941406 153.632812 291.621094 152.515625 292.753906 152.695312 C 293.0625 152.742188 293.34375 152.890625 293.574219 153.101562 C 294.355469 153.808594 294.664062 155.035156 294.246094 156.011719 C 293.925781 156.757812 293.167969 157.3125 292.355469 157.320312 C 291.605469 157.324219 290.925781 156.898438 290.242188 156.585938 C 288.003906 155.566406 285.441406 155.710938 282.984375 155.757812 C 278.183594 155.839844 273.328125 155.457031 268.574219 156.324219 C 267.152344 156.582031 265.730469 156.957031 264.359375 157.40625 C 263.59375 157.652344 262.847656 157.960938 262.132812 158.472656 C 267.230469 158.132812 272.101562 158.9375 276.886719 160.476562 C 279.539062 161.332031 282.355469 163.550781 282.632812 166.53125 C 282.8125 168.421875 281.414062 169.476562 279.757812 169.902344 C 275.949219 170.875 271.753906 170.558594 268.042969 169.304688 C 266.988281 168.945312 265.925781 168.277344 264.769531 168.410156 C 264.914062 168.394531 266.542969 170.375 266.628906 170.503906 C 267.140625 171.265625 267.609375 172.179688 267.792969 173.082031 C 267.894531 173.589844 267.835938 174.167969 267.476562 174.539062 C 267.210938 174.808594 266.824219 174.929688 266.445312 174.953125 C 265.480469 175.023438 264.585938 174.566406 263.78125 174.089844 C 262.867188 173.554688 261.953125 173.011719 261.058594 172.445312 C 259.257812 171.3125 257.496094 170.121094 255.734375 168.925781 C 254.601562 168.15625 252.414062 166.398438 252.125 166.6875 C 253.527344 168.332031 254.738281 170.207031 256.382812 171.558594 C 260.019531 174.546875 263.589844 177.796875 267.703125 179.976562 C 275.480469 184.097656 283.835938 186.480469 292.839844 185.964844 C 306.816406 185.164062 320.28125 182.332031 333.101562 176.566406 C 335.339844 175.558594 337.675781 174.800781 340 174.027344 C 342.175781 173.308594 344.347656 172.617188 346.320312 171.425781 C 348.820312 169.914062 351 167.855469 352.664062 165.457031 C 352.957031 165.039062 353.238281 164.613281 353.480469 164.160156 C 355.429688 160.535156 354.785156 155.9375 352.695312 152.507812 C 352.328125 151.902344 351.851562 151.34375 351.316406 150.871094 C 350.085938 149.789062 349.257812 148.980469 348.171875 150.53125 C 347.042969 152.144531 344.90625 153.304688 343.054688 152.523438 C 341.453125 151.851562 341.3125 150.125 342.597656 149.050781 C 343.183594 148.558594 343.9375 148.300781 344.691406 148.191406 C 345.347656 148.101562 346.050781 148.082031 346.710938 148.148438 C 347.164062 148.199219 347.628906 148.257812 348.066406 148.066406 C 348.734375 147.769531 348.832031 147.003906 348.988281 146.371094 C 350.179688 141.496094 347.632812 137.941406 342.605469 137.609375 C 338.195312 137.316406 334.300781 138.878906 330.664062 141.164062 C 327.882812 142.910156 325.023438 144.128906 321.707031 142.980469 C 321.113281 142.777344 320.59375 142.363281 320.03125 141.957031 C 319.871094 141.839844 319.960938 141.585938 320.160156 141.597656 C 321.355469 141.6875 324.042969 141.792969 326.703125 136.792969 C 328.21875 133.9375 329.277344 130.859375 330.453125 127.847656 C 331.699219 124.644531 333.1875 121.664062 336.761719 119.710938 C 332.894531 116.789062 333.878906 113.449219 335.109375 109.96875 C 335.878906 107.796875 336.523438 105.527344 336.824219 103.25 C 337.226562 100.183594 335.84375 98.792969 332.820312 98.171875 C 327.585938 97.089844 322.335938 96.019531 317.171875 94.652344 C 310.339844 92.847656 307.023438 84.949219 310.304688 78.503906 C 309.980469 78.128906 309.640625 77.703125 309.257812 77.308594 C 306.660156 74.609375 304.003906 71.859375 301.382812 69.140625 C 298.953125 66.617188 296.59375 64.003906 293.996094 61.65625 C 290.628906 58.613281 286.789062 56.039062 282.359375 54.859375 C 276 53.164062 268.816406 53.660156 263 56.84375 C 259.371094 58.828125 256.492188 61.722656 254.160156 65.042969 Z M 230.957031 156.929688 C 230.691406 156.957031 230.476562 157.070312 230.382812 157.398438 C 230.328125 157.601562 230.34375 157.816406 230.402344 158.023438 C 230.714844 159.132812 231.710938 159.613281 232.675781 160.027344 C 233.765625 160.5 234.882812 160.902344 236.023438 161.238281 C 238.304688 161.914062 240.664062 162.316406 243.039062 162.429688 C 243.347656 162.445312 244.726562 162.34375 245.140625 162.382812 C 245.167969 162.382812 245.179688 162.351562 245.15625 162.332031 C 244.773438 162.019531 244.445312 161.617188 244.0625 161.292969 C 243.625 160.921875 243.164062 160.574219 242.683594 160.257812 C 241.722656 159.617188 240.691406 159.089844 239.621094 158.65625 C 237 157.605469 234.179688 157.226562 231.386719 156.9375 C 231.238281 156.921875 231.089844 156.914062 230.957031 156.929688 Z M 247.765625 160.75 C 247.65625 159.503906 247.476562 158.265625 247.21875 157.042969 C 246.980469 155.898438 246.507812 154.8125 246.109375 153.71875 C 245.238281 151.335938 244.3125 148.96875 243.34375 146.625 C 242.886719 145.523438 242.46875 144.410156 241.902344 143.359375 C 241.480469 142.574219 240.996094 141.820312 240.410156 141.148438 C 239.722656 140.355469 238.683594 139.644531 237.589844 139.988281 C 236.605469 140.296875 236.652344 141.933594 236.820312 142.734375 C 237.042969 143.820312 237.433594 144.894531 237.75 145.953125 C 238.085938 147.0625 238.433594 148.171875 238.820312 149.269531 C 239.59375 151.445312 240.535156 153.578125 241.828125 155.5 C 241.855469 155.539062 241.878906 155.578125 241.90625 155.617188 C 242.90625 157.078125 244.078125 158.417969 245.394531 159.605469 C 245.609375 159.800781 245.839844 159.984375 246.089844 160.132812 C 246.21875 160.214844 247.769531 160.828125 247.765625 160.753906 C 247.765625 160.753906 247.765625 160.75 247.765625 160.75 Z M 249.601562 160.148438 C 249.636719 160.414062 249.785156 160.664062 250.101562 161.496094 C 251.511719 158.753906 252.769531 156.519531 253.84375 154.195312 C 255.914062 149.722656 258.125 145.269531 259.632812 140.566406 C 260.25 138.648438 260.710938 136.6875 261.074219 134.707031 C 261.296875 133.507812 261.46875 132.292969 261.433594 131.070312 C 261.402344 130.070312 261.320312 128.566406 260.488281 127.863281 C 259.792969 127.277344 258.738281 126.964844 257.835938 127.058594 C 257.222656 127.121094 256.628906 127.34375 256.074219 127.621094 C 252.703125 129.3125 251.226562 133.035156 250.390625 136.496094 C 249.207031 141.378906 248.6875 146.46875 248.804688 151.492188 C 248.820312 152.183594 248.847656 152.875 248.890625 153.5625 C 248.921875 154.050781 248.960938 154.539062 249.003906 155.023438 C 249.15625 156.738281 249.363281 158.445312 249.601562 160.148438 Z M 256.21875 159.734375 C 260.382812 157.820312 264.6875 156.003906 268.054688 152.800781 C 269.492188 151.429688 270.765625 149.902344 271.980469 148.335938 C 273.152344 146.820312 274.460938 145.316406 275.40625 143.652344 C 275.6875 143.152344 276.027344 142.429688 275.75 141.863281 C 275.519531 141.382812 274.917969 141.238281 274.390625 141.1875 C 270.277344 140.785156 267.066406 143.121094 264.183594 145.757812 C 261.617188 148.105469 259.320312 150.746094 257.175781 153.480469 C 255.570312 155.527344 254.015625 157.640625 252.640625 159.851562 C 252.425781 160.191406 251.953125 160.742188 251.917969 161.167969 C 253.503906 160.648438 254.921875 160.328125 256.21875 159.734375 Z M 253.128906 165.214844 C 253.402344 165.257812 253.722656 165.621094 253.917969 165.789062 C 255.105469 166.796875 256.21875 167.890625 257.464844 168.839844 C 259.445312 170.335938 261.660156 171.503906 263.6875 172.933594 C 264.320312 173.378906 264.957031 173.851562 265.707031 174.039062 C 265.875 174.082031 266.054688 174.113281 266.226562 174.070312 C 266.523438 173.996094 266.632812 173.730469 266.640625 173.453125 C 266.683594 171.734375 265.398438 170.246094 264.113281 169.269531 C 261.851562 167.546875 259.105469 166.550781 256.371094 165.859375 C 255.300781 165.585938 254.21875 165.378906 253.128906 165.214844 Z M 255.875 163.753906 C 256.226562 163.910156 256.578125 164.054688 256.902344 164.183594 C 257.882812 164.589844 258.890625 164.925781 259.894531 165.273438 C 263.21875 166.429688 266.523438 167.722656 269.902344 168.734375 C 272.089844 169.386719 274.371094 169.851562 276.667969 169.753906 C 278.351562 169.683594 280.605469 169.261719 281.078125 167.335938 C 281.667969 164.910156 279.066406 162.757812 277.15625 161.878906 C 275.136719 160.949219 272.890625 160.578125 270.703125 160.292969 C 266.125 159.6875 261.484375 159.902344 257.097656 161.402344 C 256.589844 161.574219 256.097656 161.777344 255.609375 162.003906 C 255.207031 162.1875 254.484375 162.410156 254.210938 162.746094 C 254.660156 163.160156 255.265625 163.484375 255.875 163.753906 Z M 291.839844 224.824219 C 301.632812 222.027344 303.566406 209.910156 302.660156 199.539062 C 302.648438 199.386719 302.453125 199.335938 302.363281 199.460938 C 297.261719 206.828125 290.824219 213.300781 291.03125 224.230469 C 291.039062 224.644531 291.441406 224.9375 291.839844 224.824219 Z M 248.949219 168.15625 C 248.941406 170.996094 249.503906 173.957031 250.460938 176.550781 C 253.339844 184.371094 259.117188 191.835938 261.277344 194.90625 C 263.800781 198.488281 267.246094 201.46875 270.777344 204.035156 C 274.320312 206.601562 277.378906 209.925781 280.339844 213.195312 C 282.03125 215.058594 283.613281 217.019531 285.167969 219 C 285.945312 219.988281 286.714844 220.984375 287.496094 221.972656 C 288.171875 222.839844 288.769531 223.71875 289.683594 224.359375 C 289.976562 219.925781 290.300781 215.371094 292.195312 211.351562 C 293.6875 208.179688 296.070312 205.535156 298.191406 202.742188 C 300.015625 200.347656 301.675781 197.800781 303.796875 195.664062 C 303.925781 195.53125 304.152344 195.613281 304.167969 195.796875 C 304.511719 199.332031 303.925781 202.894531 303.742188 206.449219 C 303.574219 209.75 303.742188 213.148438 302.632812 216.261719 C 301.808594 218.5625 300.320312 220.582031 298.605469 222.324219 C 296.886719 224.066406 294.933594 225.558594 293.007812 227.0625 C 291.835938 227.984375 291.6875 228.859375 292.238281 230.238281 C 294.191406 235.09375 295.652344 240.109375 295.808594 245.363281 C 295.894531 248.3125 295.460938 251.277344 295.273438 254.234375 C 295.476562 254.320312 299.664062 250.269531 301.375 247.992188 C 305.632812 242.316406 308.183594 235.820312 309.503906 228.910156 C 311.0625 220.753906 312.375 212.550781 313.679688 204.351562 C 315.976562 189.867188 325.4375 182.046875 325.640625 181.515625 C 324.832031 181.699219 310.152344 185.972656 300.1875 186.914062 C 293.941406 187.507812 287.808594 187.976562 281.714844 186.609375 C 269.652344 183.914062 259.042969 178.648438 251.398438 168.492188 C 250.691406 167.546875 249.945312 166.601562 249.140625 165.734375 C 249.011719 166.53125 248.949219 167.339844 248.949219 168.15625 Z M 240.359375 200.78125 C 240.226562 200.808594 240.21875 200.996094 240.34375 201.035156 C 245.261719 202.625 249.796875 205.425781 254.285156 208.375 C 258.6875 211.265625 263.824219 211.996094 268.898438 212.773438 C 271.828125 213.222656 274.773438 213.582031 277.847656 213.996094 C 278.019531 214.019531 278.132812 213.820312 278.023438 213.683594 C 267.960938 201.542969 255.214844 197.734375 240.359375 200.78125 Z M 333.761719 138.355469 C 336.664062 137.703125 339.445312 137.078125 342.25 136.449219 C 342.53125 136.382812 342.714844 136.113281 342.667969 135.828125 C 342.308594 133.675781 340.421875 131.871094 338.324219 131.921875 C 336.089844 131.980469 333.648438 135.011719 333.390625 138.035156 C 333.371094 138.238281 333.5625 138.398438 333.761719 138.355469 Z M 344.484375 126.792969 C 343.953125 122.898438 342.136719 121.75 339.65625 121.4375 C 337.222656 121.128906 334.722656 122.914062 333.214844 126.34375 C 331.1875 130.949219 329.300781 135.617188 327.277344 140.464844 C 327.164062 140.730469 327.402344 141.015625 327.683594 140.945312 C 329.621094 140.46875 330.875 139.316406 331.847656 137.734375 C 332.839844 136.117188 333.664062 134.40625 334.761719 132.867188 C 336.839844 129.964844 339.800781 129.648438 342.054688 132.429688 C 342.660156 133.171875 343.113281 134.351562 343.941406 135.578125 C 344.664062 132.617188 344.816406 129.203125 344.484375 126.792969 Z M 312.558594 81.265625 C 312.328125 80.792969 311.941406 80.433594 311.382812 80.417969 C 310.175781 80.378906 310.535156 82.082031 310.59375 82.804688 C 310.609375 82.984375 310.890625 85.273438 310.917969 85.261719 C 311.851562 84.828125 312.601562 83.902344 312.789062 82.882812 C 312.878906 82.40625 312.808594 81.769531 312.558594 81.265625 Z M 287.292969 246.839844 C 286.765625 245.710938 286.125 244.628906 285.441406 243.585938 C 284.253906 241.773438 283.070312 239.964844 281.773438 238.226562 C 279.820312 235.601562 276.84375 232.71875 275.3125 227.921875 C 275.292969 227.855469 275.195312 227.867188 275.191406 227.9375 C 275.085938 229.679688 275.054688 231.417969 274.902344 233.148438 C 274.730469 235.132812 274.59375 237.128906 274.636719 239.121094 C 274.703125 242.171875 275.136719 245.394531 276.78125 248.035156 C 278.230469 250.363281 280.738281 251.546875 282.984375 252.9375 C 284.046875 253.597656 284.96875 254.476562 285.683594 255.5 C 286.058594 256.035156 286.375 256.609375 286.628906 257.210938 C 286.867188 257.769531 286.945312 258.496094 287.203125 258.996094 C 288.574219 255.960938 289.097656 252.65625 288.230469 249.394531 C 287.996094 248.511719 287.675781 247.664062 287.292969 246.839844 Z M 146.8125 77.753906 C 146.910156 77.722656 147.011719 77.703125 147.109375 77.683594 C 168.777344 73.351562 189.128906 63.597656 207.289062 51.015625 C 212.503906 47.402344 217.574219 43.542969 223.136719 40.496094 C 226.179688 38.832031 229.371094 37.421875 232.707031 36.46875 C 236.042969 35.515625 239.484375 35.167969 242.9375 35.054688 C 247.257812 34.914062 251.609375 35.421875 255.738281 36.738281 C 258.722656 37.6875 261.585938 39.015625 264.234375 40.695312 C 266.867188 42.363281 269.496094 44.328125 271.3125 46.902344 C 272.207031 48.167969 272.863281 49.59375 273.195312 51.113281 C 273.519531 52.585938 274.1875 52.976562 275.597656 53.046875 C 285.429688 53.546875 292.992188 58.59375 299.601562 65.355469 C 303.964844 69.820312 308.214844 74.40625 312.351562 79.078125 C 313.273438 80.125 313.792969 81.730469 313.980469 83.148438 C 314.109375 84.140625 313.308594 85.238281 313.039062 86.320312 C 312.808594 87.242188 312.835938 88.484375 314.152344 88.410156 C 314.820312 88.375 315.390625 87.9375 315.910156 87.523438 C 317.828125 86 319.363281 84.480469 320.675781 82.421875 C 319.730469 86.40625 318.472656 90.152344 313.980469 91.445312 C 315.144531 93.574219 317.023438 94.035156 318.84375 94.410156 C 323.453125 95.363281 328.101562 96.121094 332.707031 97.085938 C 337.617188 98.117188 338.847656 99.9375 337.863281 104.867188 C 337.34375 107.480469 336.410156 110.003906 335.742188 112.589844 C 334.710938 116.558594 336.066406 118.988281 339.871094 119.894531 C 342.796875 120.59375 345.125 122.699219 345.484375 125.546875 C 345.898438 128.84375 345.285156 131.9375 345.378906 135.285156 C 345.398438 135.988281 345.546875 137.035156 346.011719 137.332031 C 349.867188 139.789062 351.695312 142.890625 350.507812 147.335938 C 350.1875 148.535156 351.398438 149.726562 352.023438 150.308594 C 355.234375 153.292969 356.753906 157.515625 355.835938 161.863281 C 355.703125 162.5 355.515625 163.125 355.273438 163.730469 C 354.3125 166.152344 352.605469 168.207031 350.695312 169.945312 C 346.628906 173.636719 341.578125 175.480469 336.5625 177.324219 C 324.675781 181.699219 317.230469 189.78125 315.214844 202.5 C 313.78125 211.535156 312.25 220.554688 310.890625 229.597656 C 309.484375 238.945312 304.875 246.585938 298.589844 253.375 C 296.34375 255.800781 293.917969 258.066406 291.769531 260.566406 C 288.605469 264.246094 285.640625 268.089844 282.515625 271.800781 C 282.289062 272.066406 281.90625 272.203125 281.496094 272.316406 C 281.070312 272.4375 280.652344 272.097656 280.675781 271.65625 C 280.699219 271.257812 280.742188 270.875 280.914062 270.5625 C 281.617188 269.277344 282.480469 268.074219 283.34375 266.878906 C 286.519531 262.480469 286.054688 258.386719 281.921875 254.890625 C 281.011719 254.121094 279.988281 253.484375 279.070312 252.722656 C 274.851562 249.242188 272.0625 245.070312 272.6875 239.285156 C 272.992188 236.417969 273.25 233.542969 273.621094 230.683594 C 273.925781 228.328125 274.335938 225.988281 274.761719 223.34375 C 274.796875 223.113281 275.121094 223.082031 275.195312 223.308594 C 275.832031 225.183594 277.191406 229.777344 278.753906 231.839844 C 280.964844 234.753906 283.300781 237.585938 285.257812 240.664062 C 288.285156 245.429688 291.15625 250.332031 290.101562 256.402344 C 290.070312 256.589844 289.453125 258.734375 289.695312 259.222656 C 291.382812 256.75 293.28125 252.441406 293.523438 249.726562 C 294.3125 241.046875 292.3125 232.894531 288.304688 225.292969 C 285.222656 219.445312 280.097656 215.898438 273.609375 214.695312 C 270.375 214.097656 267.023438 214.097656 263.71875 213.953125 C 259.308594 213.765625 255.390625 212.386719 251.671875 209.96875 C 247.796875 207.441406 243.667969 205.300781 239.609375 203.054688 C 238.050781 202.191406 236.414062 201.464844 234.441406 200.519531 C 234.222656 200.414062 234.257812 200.097656 234.488281 200.042969 C 244.328125 197.675781 253.617188 198.554688 262.972656 199.804688 C 263.140625 199.824219 263.25 199.628906 263.140625 199.5 C 254.914062 189.570312 247.171875 179.609375 247.261719 166.003906 C 245.136719 166.574219 243.171875 167.351562 240.9375 167.449219 C 238.105469 167.570312 235.320312 166.863281 232.785156 165.617188 C 229.84375 164.171875 227.398438 161.890625 225.171875 159.519531 C 222.816406 157.015625 220.464844 154.453125 218.378906 151.71875 C 218.375 151.714844 218.371094 151.710938 218.367188 151.703125 C 216.257812 148.941406 214.660156 145.71875 213.503906 142.449219 C 213.46875 142.347656 213.433594 142.246094 213.398438 142.148438 C 212.285156 138.914062 211.316406 135.601562 210.976562 132.191406 C 210.703125 129.40625 211.097656 126.574219 213.625 124.929688 C 214.476562 124.375 215.4375 124.003906 216.417969 123.738281 C 218.25 123.246094 220.1875 123.664062 222.132812 124.273438 C 222.554688 121.234375 223.773438 116.925781 225.515625 114.320312 C 228.863281 109.3125 232.703125 104.613281 236.578125 99.988281 C 240.066406 95.816406 243.039062 91.347656 244.234375 86.066406 C 246.160156 77.574219 249.113281 69.691406 254.679688 62.820312 C 258.863281 57.652344 263.945312 54.296875 270.496094 53.210938 C 272.839844 52.824219 273.074219 52.347656 271.871094 50.242188 C 268.859375 44.976562 263.722656 41.292969 258.125 39.164062 C 251.664062 36.707031 244.828125 35.78125 237.960938 36.800781 C 230.914062 37.84375 224.566406 41.0625 218.71875 45.003906 C 218.660156 45.042969 218.601562 45.082031 218.542969 45.121094 C 212.554688 49.171875 206.910156 53.691406 200.800781 57.574219 C 194.976562 61.28125 188.917969 64.621094 182.671875 67.566406 C 176.425781 70.507812 169.996094 73.058594 163.429688 75.195312 C 158.472656 76.808594 145.984375 78.445312 146.324219 78.035156 C 146.445312 77.886719 146.625 77.808594 146.8125 77.753906 " fill-opacity="1" fill-rule="nonzero"/></g><g clip-path="url(#fca2c64360)"><g clip-path="url(#90ba0568bf)"><g clip-path="url(#1192a3dc30)"><path fill="#ffffff" d="M 18.835938 180.484375 C 19.289062 179.417969 19.824219 178.398438 20.441406 177.414062 C 20.890625 176.742188 21.296875 176.042969 21.660156 175.316406 C 22.363281 173.75 22.570312 174.625 22.121094 177.257812 C 21.871094 178.71875 21.699219 181.386719 21.738281 183.191406 C 21.816406 186.558594 21.964844 187.804688 23.488281 197.957031 C 23.972656 201.199219 24.40625 204.734375 24.453125 205.820312 C 24.53125 207.6875 24.515625 207.742188 24.160156 206.917969 C 23.738281 206.058594 23.265625 205.226562 22.75 204.417969 C 21.121094 201.84375 18.667969 196.648438 18.042969 194.433594 C 16.789062 190.019531 17.097656 184.613281 18.835938 180.484375 Z M 24.308594 175.078125 C 26.207031 178.660156 28.71875 184.226562 29.195312 185.902344 C 30.382812 190.078125 30.09375 193.503906 27.832031 202.144531 C 27.195312 204.582031 26.550781 206.882812 26.402344 207.261719 C 26.015625 208.253906 25.570312 207.644531 25.792969 206.421875 C 26.0625 204.949219 25.34375 198.300781 24.300781 192.585938 C 23.054688 185.753906 22.832031 181.972656 23.4375 177.800781 C 23.894531 174.632812 23.960938 174.421875 24.308594 175.078125 Z M 32.691406 161.398438 C 34.515625 158.042969 40.035156 150.90625 41.386719 150.144531 C 42.417969 149.566406 41.503906 152.132812 37.363281 161.449219 C 34.347656 168.222656 33.191406 172.078125 32.789062 176.667969 C 32.621094 178.566406 32.515625 180.40625 32.550781 180.757812 C 32.589844 181.113281 32.21875 180.03125 31.734375 178.355469 C 29.78125 171.617188 30.085938 166.183594 32.691406 161.398438 Z M 29.53125 200.210938 C 35.933594 178.167969 49.710938 158.476562 68.269531 144.835938 C 72.164062 141.972656 73.164062 140.84375 74.25 138.074219 C 75.652344 134.511719 76.007812 132.796875 75.367188 132.675781 C 75.15625 132.636719 74.628906 132.199219 74.199219 131.707031 C 72.796875 130.09375 73.75 127.9375 76.191406 127.191406 C 77.441406 126.8125 77.691406 126.894531 78.410156 127.9375 C 79.230469 129.121094 78.953125 130.742188 77.765625 131.703125 C 77.011719 132.3125 76.890625 132.605469 76.863281 133.878906 C 76.84375 134.6875 76.699219 135.648438 76.539062 136.015625 C 76.382812 136.382812 76.34375 136.699219 76.460938 136.722656 C 76.730469 136.769531 82.160156 129.277344 82.242188 128.742188 C 82.277344 128.523438 82.152344 128.035156 81.960938 127.65625 C 81.308594 126.359375 82.359375 123.527344 83.796875 122.71875 C 84.128906 122.535156 84.84375 122.476562 85.390625 122.589844 C 88.304688 123.210938 87.738281 128.140625 84.699219 128.652344 C 83.722656 128.816406 83.414062 129.09375 82.535156 130.601562 C 81.429688 132.5 78.125 136.945312 76.351562 138.925781 L 75.253906 140.152344 L 77.738281 138.695312 C 79.105469 137.894531 81.621094 136.5625 83.332031 135.730469 C 89.628906 132.675781 89.097656 133.070312 91.207031 129.867188 C 93.710938 126.0625 95.304688 124.4375 98.757812 122.164062 C 102.019531 120.015625 103.558594 119.519531 104.171875 120.40625 C 104.53125 120.925781 104.363281 121.195312 102.402344 123.253906 C 99.679688 126.117188 96.535156 129.363281 95.796875 130.074219 C 95.398438 130.460938 96.339844 130.285156 99.027344 129.476562 C 102.503906 128.433594 103.023438 128.171875 105.214844 126.328125 C 110.265625 122.085938 119.195312 118.230469 119.882812 119.996094 C 120.066406 120.460938 116.25 123.460938 113.347656 125.132812 C 111.050781 126.457031 111.117188 126.601562 113.75 126.046875 C 118.011719 125.148438 128.988281 124.617188 136.039062 124.972656 C 141.21875 125.230469 154.382812 127.546875 159.40625 129.082031 C 162.753906 130.105469 163.046875 130.144531 165.445312 129.9375 C 166.832031 129.816406 168.417969 129.578125 168.96875 129.410156 C 170.441406 128.960938 171.507812 126.875 170.132812 127.132812 C 169.863281 127.183594 169.59375 127.496094 169.53125 127.832031 C 169.375 128.6875 168.367188 128.242188 168.402344 127.332031 C 168.4375 126.425781 170.027344 125.304688 171.019531 125.484375 C 172.40625 125.738281 172.957031 127.4375 172.085938 128.769531 C 171.382812 129.84375 170.050781 130.488281 167.777344 130.855469 C 165.558594 131.210938 166.082031 131.574219 169.839844 132.289062 C 173.066406 132.90625 178.121094 133.078125 179.78125 132.628906 C 181.039062 132.292969 182.210938 131.269531 181.988281 130.703125 C 181.769531 130.148438 180.964844 130.121094 180.863281 130.667969 C 180.746094 131.308594 179.867188 130.957031 179.554688 130.144531 C 179.355469 129.632812 179.488281 129.417969 180.320312 128.925781 C 182.433594 127.671875 184.574219 129.363281 183.765625 131.65625 C 183.007812 133.816406 179.925781 134.699219 174.972656 134.179688 L 172.492188 133.917969 L 176.425781 135.871094 C 178.585938 136.945312 181.714844 138.425781 183.371094 139.160156 L 186.382812 140.5 L 188.058594 140.113281 C 189.617188 139.757812 189.726562 139.671875 189.589844 138.914062 C 189.390625 137.847656 190.4375 136.214844 191.402344 136.089844 C 192.550781 135.945312 194.132812 136.707031 194.503906 137.589844 C 195.136719 139.082031 193.339844 140.839844 191.464844 140.566406 C 190.816406 140.492188 190.191406 140.574219 189.585938 140.8125 C 188.730469 141.203125 188.738281 141.207031 190.71875 141.640625 C 194.570312 142.476562 195.230469 142.476562 196.417969 141.65625 C 197.273438 141.0625 197.800781 140.941406 198.746094 141.113281 C 201.308594 141.582031 202.128906 144.117188 200.070312 145.203125 C 199.03125 145.753906 197.460938 145.453125 196.714844 144.5625 C 196.335938 144.109375 188.644531 142.445312 188.578125 142.800781 C 188.5625 142.898438 189.222656 143.414062 190.050781 143.949219 C 192.648438 145.628906 198.671875 150.640625 202.3125 154.152344 C 214.027344 165.449219 223.214844 179.878906 228.503906 195.277344 C 232.769531 207.695312 234.671875 221.664062 233.988281 235.550781 C 233.738281 240.621094 231.410156 253.867188 229.914062 258.738281 C 222.878906 281.632812 209.742188 300.277344 190.929688 314.070312 C 187.289062 316.738281 186.21875 317.953125 185.125 320.652344 C 183.972656 323.503906 183.460938 326 184.011719 326.101562 C 184.226562 326.140625 184.75 326.578125 185.179688 327.070312 C 186.582031 328.683594 185.632812 330.839844 183.1875 331.585938 C 181.9375 331.96875 181.6875 331.882812 180.96875 330.84375 C 180.148438 329.65625 180.425781 328.035156 181.613281 327.074219 C 182.367188 326.464844 182.488281 326.171875 182.519531 324.898438 C 182.535156 324.089844 182.679688 323.128906 182.839844 322.761719 C 183 322.394531 183.035156 322.078125 182.917969 322.054688 C 182.648438 322.007812 177.21875 329.5 177.136719 330.035156 C 177.101562 330.257812 177.230469 330.746094 177.417969 331.121094 C 178.074219 332.417969 177.023438 335.25 175.585938 336.058594 C 175.253906 336.246094 174.535156 336.300781 173.992188 336.1875 C 171.078125 335.566406 171.640625 330.636719 174.683594 330.125 C 175.65625 329.960938 175.964844 329.683594 176.84375 328.175781 C 177.953125 326.28125 181.257812 321.832031 183.03125 319.851562 L 184.125 318.628906 L 181.640625 320.082031 C 180.277344 320.882812 177.757812 322.214844 176.046875 323.046875 C 169.75 326.101562 170.28125 325.707031 168.175781 328.910156 C 165.667969 332.714844 164.078125 334.339844 160.621094 336.613281 C 157.359375 338.761719 155.820312 339.257812 155.207031 338.371094 C 154.847656 337.851562 155.015625 337.582031 156.976562 335.523438 C 159.703125 332.660156 162.84375 329.414062 163.582031 328.703125 C 163.980469 328.320312 163.039062 328.492188 160.351562 329.300781 C 156.875 330.34375 156.359375 330.609375 154.164062 332.449219 C 149.113281 336.695312 140.1875 340.546875 139.496094 338.78125 C 139.316406 338.320312 143.121094 335.324219 145.972656 333.675781 C 147.214844 332.960938 148.15625 332.363281 148.066406 332.34375 C 147.976562 332.328125 146.917969 332.492188 145.714844 332.710938 C 140.257812 333.703125 130.703125 334.171875 123.355469 333.8125 C 118.179688 333.558594 105.039062 331.246094 99.972656 329.695312 C 96.625 328.671875 96.335938 328.628906 93.933594 328.839844 C 92.546875 328.960938 90.964844 329.199219 90.414062 329.367188 C 88.941406 329.816406 87.875 331.902344 89.25 331.644531 C 89.519531 331.59375 89.785156 331.28125 89.847656 330.945312 C 90.003906 330.089844 91.015625 330.535156 90.980469 331.445312 C 90.945312 332.351562 89.351562 333.472656 88.363281 333.292969 C 86.949219 333.035156 86.363281 331.136719 87.3125 329.902344 C 88.101562 328.882812 89.417969 328.273438 91.585938 327.925781 C 93.867188 327.558594 93.351562 327.167969 89.699219 326.496094 C 86.300781 325.871094 81.265625 325.699219 79.597656 326.144531 C 78.339844 326.484375 77.171875 327.503906 77.394531 328.074219 C 77.609375 328.628906 78.417969 328.65625 78.515625 328.109375 C 78.632812 327.46875 79.515625 327.820312 79.828125 328.632812 C 80.027344 329.144531 79.890625 329.359375 79.058594 329.851562 C 76.945312 331.105469 74.808594 329.414062 75.613281 327.121094 C 76.375 324.960938 79.453125 324.078125 84.410156 324.597656 L 86.890625 324.859375 L 82.957031 322.90625 C 80.792969 321.832031 77.667969 320.351562 76.011719 319.613281 L 72.996094 318.277344 L 71.320312 318.664062 C 69.761719 319.019531 69.652344 319.105469 69.789062 319.859375 C 69.988281 320.929688 68.941406 322.5625 67.976562 322.6875 C 66.828125 322.832031 65.246094 322.070312 64.875 321.1875 C 64.246094 319.695312 66.039062 317.9375 67.917969 318.210938 C 68.5625 318.285156 69.1875 318.203125 69.792969 317.964844 C 70.648438 317.574219 70.640625 317.566406 68.660156 317.136719 C 64.808594 316.300781 64.148438 316.300781 62.960938 317.121094 C 62.105469 317.714844 61.578125 317.835938 60.632812 317.664062 C 58.070312 317.195312 57.25 314.660156 59.308594 313.570312 C 60.347656 313.023438 61.917969 313.324219 62.664062 314.214844 C 63.042969 314.664062 70.738281 316.328125 70.800781 315.976562 C 70.820312 315.878906 70.15625 315.363281 69.328125 314.828125 C 65.316406 312.234375 56.304688 304.320312 54.613281 301.910156 C 54.203125 301.324219 52.617188 299.414062 51.085938 297.667969 C 47.660156 293.761719 40.554688 283.511719 38.117188 278.964844 C 28.371094 260.757812 24.148438 240.652344 25.808594 220.394531 C 26.125 216.550781 28.453125 203.917969 29.53125 200.210938 Z M 27.828125 224.082031 C 27.121094 242.339844 30.6875 259.101562 38.675781 275.0625 C 44.628906 286.964844 53.84375 298.65625 63.933594 307.109375 C 67.664062 310.238281 67.523438 310.238281 66.195312 307.078125 C 65.53125 305.5 64.816406 303.984375 64.609375 303.707031 C 64.402344 303.429688 63.8125 302.652344 63.300781 301.980469 C 62.585938 301.035156 62.417969 300.511719 62.566406 299.714844 C 62.796875 298.496094 63.070312 298.164062 64.113281 297.835938 C 65.144531 297.511719 66.234375 298.304688 66.921875 299.886719 C 67.519531 301.253906 67.394531 302.445312 66.585938 303.066406 C 66.074219 303.460938 66.109375 303.707031 66.972656 305.703125 C 68.394531 308.988281 70.679688 312.359375 72.191406 313.398438 C 74.011719 314.648438 79.078125 317.832031 79.320312 317.875 C 79.429688 317.894531 78.675781 317.058594 77.652344 316.011719 C 75.03125 313.347656 72.234375 308.945312 71.558594 306.417969 C 70.898438 303.953125 71.140625 302.144531 72.332031 300.582031 C 73.769531 298.703125 75.351562 298.625 76.558594 300.371094 C 77.386719 301.570312 77.296875 303.367188 76.390625 303.875 C 75.636719 304.300781 75.269531 303.800781 75.480469 302.644531 C 75.90625 300.292969 74.128906 299.574219 73.0625 301.667969 C 72.222656 303.3125 72.359375 304.714844 73.617188 307.449219 C 75.535156 311.613281 78.988281 315.691406 83.980469 319.6875 C 85.691406 321.058594 88.464844 322.714844 89.363281 322.90625 C 89.429688 322.921875 88.761719 322.25 87.875 321.410156 C 85.039062 318.726562 83.121094 315.160156 83.476562 313.21875 C 83.796875 311.453125 85.46875 310.03125 86.910156 310.292969 C 87.765625 310.449219 89.242188 311.847656 89.523438 312.769531 C 89.960938 314.195312 89.089844 315.574219 87.972656 315.230469 C 87.375 315.042969 87.234375 314.804688 87.328125 314.140625 C 87.472656 313.101562 87.046875 312.40625 86.34375 312.539062 C 84.539062 312.878906 86.34375 316.894531 90.007812 320.6875 C 93.707031 324.519531 97.003906 326.175781 104.777344 328.101562 L 107.382812 328.75 L 105.445312 327.808594 C 101.921875 326.105469 99.445312 323.582031 97.878906 320.09375 C 97.511719 319.277344 96.757812 316.882812 96.199219 314.769531 C 95.636719 312.65625 95.042969 310.804688 94.871094 310.652344 C 94.695312 310.492188 94.613281 310.296875 94.621094 310.058594 C 94.652344 309.886719 96.210938 311.824219 98.078125 314.363281 C 103.09375 321.183594 107.066406 325.527344 110.617188 328.082031 C 111.507812 328.722656 112.132812 329.316406 112.003906 329.40625 C 111.351562 329.855469 121.664062 331.054688 127.433594 331.203125 C 129.023438 331.242188 129.019531 331.242188 126.328125 330.507812 C 124.847656 330.105469 122.804688 329.339844 121.789062 328.8125 C 119.648438 327.695312 116.945312 325.199219 116.089844 323.546875 C 115.761719 322.917969 114.480469 320.777344 113.238281 318.792969 C 111.25 315.617188 110.675781 314.3125 111.3125 314.429688 C 111.414062 314.449219 111.9375 314.949219 112.46875 315.546875 C 113.421875 316.609375 115.578125 318.441406 119.144531 321.230469 C 120.140625 322.003906 122.277344 323.714844 123.894531 325.03125 C 127.148438 327.679688 129.949219 329.511719 131.777344 330.195312 C 132.4375 330.4375 133.097656 330.769531 133.246094 330.925781 C 133.730469 331.441406 144.75 330.363281 149.171875 329.375 C 150.453125 329.085938 150.449219 329.085938 147.230469 328.613281 C 143.871094 328.121094 141.640625 327.359375 137.671875 325.339844 C 135.847656 324.414062 135.597656 324.1875 135.714844 323.550781 L 135.847656 322.820312 L 141.359375 323.59375 C 144.953125 324.097656 148.507812 324.796875 152.023438 325.691406 C 154.859375 326.421875 157.617188 327.003906 158.152344 326.984375 C 159.507812 326.9375 164.597656 325.203125 169.757812 323.027344 C 174.125 321.191406 181.53125 317.394531 181.328125 317.097656 C 181.265625 317.007812 180.339844 317.148438 179.269531 317.40625 C 178.199219 317.660156 175.902344 317.945312 174.167969 318.035156 C 172.316406 318.128906 170.121094 318.496094 168.851562 318.925781 C 166.761719 319.625 166.6875 319.6875 166.578125 320.789062 C 166.433594 322.21875 165.847656 322.96875 164.445312 323.507812 C 160.789062 324.914062 158.070312 320.980469 161.25 318.882812 C 162.195312 318.257812 162.617188 318.191406 164.003906 318.441406 C 165.558594 318.722656 168.0625 318.273438 168.167969 317.691406 C 168.195312 317.558594 167.761719 317.367188 167.207031 317.261719 C 166.460938 317.09375 165.738281 316.863281 165.035156 316.566406 C 164.171875 316.191406 163.628906 316.136719 162.929688 316.347656 C 160.828125 316.992188 157.683594 315.621094 157.070312 313.792969 C 156.394531 311.796875 158.179688 310.496094 160.90625 310.992188 C 162.839844 311.347656 163.90625 312.234375 164.101562 313.652344 C 164.210938 314.449219 164.492188 314.914062 165.003906 315.148438 C 166.089844 315.640625 173.511719 316.632812 174.488281 316.414062 C 175.3125 316.230469 175.3125 316.226562 174.617188 316.082031 C 174.230469 315.996094 173.4375 315.613281 172.855469 315.222656 C 172.269531 314.828125 171.117188 314.410156 170.292969 314.289062 C 168.929688 314.089844 168.699219 313.9375 167.792969 312.628906 C 166.632812 310.949219 166.648438 310.386719 167.882812 309.53125 C 170.195312 307.933594 174.421875 310.824219 173.054688 313.070312 C 172.648438 313.734375 174.472656 314.792969 177.214844 315.484375 L 179.515625 316.0625 L 183.242188 314.964844 C 186.644531 313.960938 187.234375 313.660156 190.121094 311.484375 C 204.128906 300.90625 214.277344 288.699219 221.5 273.757812 C 225.394531 265.691406 227.425781 259.6875 229.332031 250.578125 C 230.878906 243.171875 231.347656 239.113281 231.660156 230.398438 C 232.359375 210.789062 226.28125 189.996094 214.824219 172.792969 C 208.648438 163.515625 202.152344 156.457031 192.761719 148.808594 L 190.8125 147.21875 L 191.878906 149.003906 C 192.625 150.316406 193.265625 151.679688 193.804688 153.09375 C 194.273438 154.359375 194.90625 155.527344 195.203125 155.6875 C 196.128906 156.179688 197 158.054688 196.800781 159.121094 C 196.582031 160.285156 196.300781 160.621094 195.265625 160.945312 C 193.136719 161.613281 190.84375 156.808594 192.773438 155.726562 C 193.226562 155.46875 193.261719 155.308594 193.015625 154.53125 C 191.949219 151.125 188.261719 145.507812 186.144531 144.0625 C 184.449219 142.910156 178.453125 139.332031 178.105469 139.269531 C 177.984375 139.246094 178.933594 140.164062 180.214844 141.308594 C 183.425781 144.179688 187.015625 149.371094 187.792969 152.269531 C 188.476562 154.832031 188.253906 156.613281 187.042969 158.199219 C 185.609375 160.078125 184.023438 160.15625 182.816406 158.410156 C 181.992188 157.214844 182.078125 155.417969 182.988281 154.90625 C 183.738281 154.480469 184.109375 154.980469 183.898438 156.136719 C 183.46875 158.488281 185.25 159.207031 186.316406 157.113281 C 187.152344 155.472656 187.019531 154.066406 185.761719 151.335938 C 183.59375 146.628906 179.703125 142.292969 173.632812 137.8125 C 169.679688 134.894531 166.828125 133.535156 170.066406 136.109375 C 173.597656 138.917969 176.3125 143.300781 175.90625 145.527344 C 175.589844 147.265625 173.855469 148.742188 172.4375 148.484375 C 171.605469 148.332031 170.128906 146.921875 169.851562 146.011719 C 169.417969 144.585938 170.285156 143.207031 171.402344 143.550781 C 172 143.738281 172.140625 143.976562 172.046875 144.644531 C 171.902344 145.679688 172.332031 146.375 173.03125 146.242188 C 174.203125 146.019531 173.796875 143.792969 172.148438 141.402344 C 169.929688 138.183594 166.726562 135.386719 162.484375 132.960938 C 156.921875 129.777344 141.488281 127.007812 129.636719 127.066406 C 123.148438 127.097656 112.332031 128.234375 109.078125 129.226562 L 107.878906 129.589844 L 111.625 130.113281 C 115.5625 130.65625 117.460938 131.285156 121.707031 133.441406 C 123.527344 134.367188 123.777344 134.597656 123.660156 135.230469 C 123.527344 135.960938 123.527344 135.960938 118.03125 135.191406 C 114.382812 134.675781 110.773438 133.964844 107.203125 133.054688 C 104.273438 132.300781 101.335938 131.6875 100.679688 131.6875 C 97.617188 131.6875 84.46875 137.207031 77.882812 141.261719 L 76.441406 142.148438 L 79.605469 141.480469 C 81.34375 141.113281 83.964844 140.777344 85.425781 140.734375 C 87.011719 140.6875 89.007812 140.351562 90.382812 139.898438 C 92.625 139.160156 92.6875 139.113281 92.796875 137.996094 C 92.941406 136.5625 93.527344 135.8125 94.929688 135.273438 C 98.609375 133.859375 101.328125 137.785156 98.128906 139.898438 C 97.183594 140.523438 96.761719 140.589844 95.375 140.339844 C 93.816406 140.058594 91.3125 140.507812 91.207031 141.089844 C 91.183594 141.222656 91.613281 141.414062 92.167969 141.519531 C 92.914062 141.6875 93.636719 141.917969 94.339844 142.214844 C 95.207031 142.589844 95.746094 142.644531 96.445312 142.433594 C 98.664062 141.753906 101.890625 143.214844 102.367188 145.113281 C 102.863281 147.074219 101.117188 148.269531 98.46875 147.789062 C 96.535156 147.433594 95.46875 146.546875 95.273438 145.128906 C 95.164062 144.332031 94.882812 143.867188 94.371094 143.632812 C 93.289062 143.140625 85.863281 142.148438 84.886719 142.367188 C 84.066406 142.550781 84.0625 142.554688 84.757812 142.699219 C 85.144531 142.785156 85.9375 143.167969 86.519531 143.558594 C 87.105469 143.953125 88.257812 144.371094 89.085938 144.492188 C 90.449219 144.691406 90.679688 144.847656 91.582031 146.15625 C 92.742188 147.832031 92.726562 148.394531 91.492188 149.25 C 89.179688 150.847656 84.953125 147.957031 86.320312 145.710938 C 86.726562 145.046875 84.902344 143.988281 82.160156 143.296875 L 79.859375 142.71875 L 75.722656 143.929688 C 71.6875 145.109375 71.496094 145.210938 68 147.917969 C 50.101562 161.796875 38.117188 179.355469 31.527344 201.378906 C 30.410156 205.113281 27.984375 219.980469 27.824219 224.082031 Z M 31.140625 207.933594 C 34.34375 201.191406 39.789062 196.171875 45.75 194.464844 C 48.410156 193.703125 61 191.542969 61.832031 191.703125 C 62.363281 191.804688 60.542969 192.894531 55.054688 195.757812 C 44.789062 201.109375 34.539062 208.207031 30.132812 213.007812 C 29.425781 213.777344 30.1875 209.941406 31.140625 207.933594 Z M 33.253906 212.046875 C 37.03125 208.554688 41.457031 205.214844 46.957031 201.703125 C 51.210938 198.988281 53.78125 197.503906 61.582031 193.253906 L 62.679688 192.652344 L 62.226562 193.945312 C 61.652344 195.574219 58.125 202.488281 56.660156 204.859375 C 54.195312 208.835938 50.144531 211.902344 45.902344 212.996094 C 43.882812 213.515625 31.050781 214.726562 30.828125 214.417969 C 30.800781 214.375 31.890625 213.308594 33.253906 212.046875 Z M 38.847656 184.410156 C 39.476562 183.582031 40.046875 182.714844 40.5625 181.808594 C 43.515625 176.554688 48.441406 172.402344 54.15625 170.351562 C 56.636719 169.457031 62.289062 168.800781 66.65625 168.894531 C 68.882812 168.941406 71.394531 168.878906 72.234375 168.757812 C 73.078125 168.632812 73.960938 168.652344 74.203125 168.796875 C 74.976562 169.269531 71.402344 170.878906 64.539062 173.152344 C 55.558594 176.125 46.421875 180.183594 42.6875 182.859375 C 41.085938 184.007812 39.414062 185.296875 38.976562 185.726562 C 37.828125 186.851562 37.726562 185.816406 38.847656 184.410156 Z M 42.011719 184.792969 C 46.09375 181.539062 53.878906 177.988281 65.246094 174.1875 C 67.933594 173.292969 71.230469 172.007812 72.574219 171.335938 C 74.144531 170.554688 74.988281 170.28125 74.933594 170.578125 C 74.757812 171.527344 72.007812 175.648438 70.09375 177.824219 C 66.320312 182.109375 62.445312 184.898438 58.773438 185.972656 C 56.378906 186.675781 51.976562 186.96875 46.964844 186.757812 C 44.328125 186.648438 41.59375 186.648438 40.882812 186.761719 C 40.171875 186.875 39.605469 186.902344 39.621094 186.824219 C 39.632812 186.746094 40.710938 185.832031 42.011719 184.792969 Z M 60.105469 156.488281 C 63.265625 153.167969 68.203125 150.828125 72.605469 150.566406 C 75.488281 150.390625 79.214844 151.300781 83.699219 153.261719 C 85.492188 154.050781 87.910156 155.011719 89.074219 155.402344 C 90.234375 155.792969 91.277344 156.238281 91.390625 156.398438 C 91.5 156.554688 90.175781 156.515625 88.441406 156.316406 C 84.695312 155.882812 71.453125 155.695312 67.984375 156.023438 C 65.414062 156.265625 61.601562 157.179688 59.695312 158.007812 C 58.265625 158.628906 58.339844 158.34375 60.105469 156.488281 Z M 59.339844 159.65625 C 60.402344 159.082031 63.699219 158.273438 66.855469 157.808594 C 70.515625 157.273438 81.128906 156.984375 85.523438 157.304688 C 90.570312 157.671875 91.679688 157.785156 91.65625 157.921875 C 91.644531 157.992188 89.457031 159.230469 86.792969 160.667969 C 77.710938 165.574219 73.914062 165.824219 64.648438 162.128906 C 62.257812 161.171875 59.96875 160.285156 59.570312 160.160156 C 58.96875 159.96875 58.929688 159.878906 59.339844 159.65625 Z M 125.894531 129.414062 C 127.429688 129.695312 131.332031 132.199219 137.460938 136.839844 C 141.25 139.710938 144.992188 142.648438 145.773438 143.367188 L 147.191406 144.671875 L 141.402344 143.613281 C 136.066406 142.632812 135.488281 142.476562 133.957031 141.503906 C 131.90625 140.210938 129.796875 137.460938 127.261719 132.785156 C 126.011719 130.476562 125.554688 129.351562 125.894531 129.414062 Z M 128 127.691406 C 130.898438 127.738281 135.1875 128.738281 137.402344 129.878906 C 139.757812 131.089844 142.332031 133.464844 143.371094 135.390625 C 143.777344 136.136719 145.074219 138.277344 146.257812 140.144531 C 148.132812 143.113281 148.71875 144.472656 148.066406 144.351562 C 147.960938 144.332031 147.441406 143.832031 146.90625 143.234375 C 145.953125 142.171875 143.796875 140.339844 140.230469 137.550781 C 139.238281 136.777344 137.101562 135.066406 135.480469 133.75 C 132.132812 131.023438 129.332031 129.207031 127.5 128.558594 C 126.808594 128.3125 126.261719 128.011719 126.285156 127.886719 C 126.308594 127.761719 127.082031 127.671875 128.003906 127.6875 Z M 96.515625 309.335938 C 97.007812 309.539062 98.90625 310.3125 100.734375 311.058594 C 102.566406 311.800781 104.652344 312.808594 105.375 313.300781 C 107.242188 314.570312 109.1875 317.582031 110.445312 321.15625 C 111.042969 322.851562 111.960938 325.105469 112.492188 326.167969 C 113.019531 327.230469 113.308594 328.121094 113.132812 328.144531 C 111.699219 328.351562 103 319.234375 98.046875 312.339844 C 95.953125 309.421875 95.742188 309.015625 96.515625 309.335938 Z M 117.972656 315.167969 C 123.3125 316.144531 123.890625 316.304688 125.421875 317.273438 C 127.472656 318.570312 129.582031 321.316406 132.113281 325.992188 C 133.363281 328.304688 133.820312 329.425781 133.484375 329.367188 C 131.945312 329.085938 128.046875 326.582031 121.917969 321.941406 C 118.125 319.070312 114.386719 316.132812 113.605469 315.414062 L 112.1875 314.109375 Z M 146.285156 130.574219 C 147.335938 130.769531 152.335938 135.453125 155.996094 139.679688 C 158.542969 142.617188 163.75 149.472656 163.542969 149.617188 C 163.269531 149.804688 155.226562 146.3125 153.980469 145.464844 C 152.160156 144.226562 150.195312 141.199219 149.003906 137.796875 C 148.445312 136.199219 147.597656 134.097656 147.125 133.132812 C 145.976562 130.785156 145.882812 130.503906 146.285156 130.574219 Z M 147.644531 129.417969 C 149.472656 129.074219 154.625 130.980469 157.085938 132.910156 C 160.082031 135.265625 161.589844 138.011719 163.179688 144.011719 C 163.738281 146.125 164.335938 147.976562 164.503906 148.128906 C 164.679688 148.289062 164.765625 148.484375 164.753906 148.722656 C 164.722656 148.898438 163.167969 146.957031 161.296875 144.417969 C 156.277344 137.589844 152.3125 133.253906 148.746094 130.691406 C 147.605469 129.871094 147.273438 129.488281 147.644531 129.417969 Z M 172.582031 298.113281 C 181.679688 293.199219 185.523438 292.949219 194.746094 296.675781 C 197.125 297.636719 199.394531 298.484375 199.785156 298.554688 C 200.195312 298.628906 200.394531 298.808594 200.25 298.96875 C 199.800781 299.464844 195.910156 300.472656 192.519531 300.96875 C 188.863281 301.507812 178.25 301.796875 173.855469 301.476562 C 168.808594 301.109375 167.695312 300.996094 167.722656 300.859375 C 167.734375 300.785156 169.921875 299.550781 172.582031 298.113281 Z M 170.9375 302.464844 C 174.613281 302.890625 187.871094 303.09375 191.335938 302.777344 C 194.09375 302.523438 197.375 301.753906 199.28125 300.914062 C 200.011719 300.589844 200.652344 300.390625 200.707031 300.46875 C 200.761719 300.546875 200.144531 301.324219 199.335938 302.191406 C 196.183594 305.578125 191.238281 307.949219 186.769531 308.214844 C 183.890625 308.386719 180.160156 307.480469 175.675781 305.515625 C 173.882812 304.730469 171.464844 303.761719 170.304688 303.363281 C 169.144531 302.964844 168.101562 302.519531 167.988281 302.371094 C 167.875 302.222656 169.203125 302.265625 170.933594 302.464844 Z M 186.042969 285.277344 C 189.902344 279.207031 195.695312 274.242188 200.601562 272.808594 C 203 272.105469 207.398438 271.8125 212.410156 272.023438 C 215.046875 272.132812 217.789062 272.132812 218.503906 272.015625 C 220.117188 271.757812 220.015625 271.910156 216.996094 274.285156 C 213.1875 277.28125 205.246094 280.871094 194.46875 284.476562 C 191.59375 285.4375 188.140625 286.773438 186.800781 287.441406 C 183.933594 288.875 183.871094 288.695312 186.042969 285.277344 Z M 186.640625 288.679688 C 187.605469 288.175781 191.300781 286.800781 194.855469 285.625 C 203.820312 282.65625 212.957031 278.597656 216.6875 275.921875 C 218.292969 274.773438 219.984375 273.46875 220.449219 273.027344 L 221.289062 272.21875 L 221.121094 273.148438 C 221.027344 273.660156 220.703125 274.304688 220.398438 274.585938 C 220.09375 274.863281 219.484375 275.761719 219.042969 276.578125 C 216.144531 281.953125 211.023438 286.34375 205.21875 288.429688 C 202.75 289.320312 197.09375 289.980469 192.769531 289.886719 C 190.570312 289.839844 187.996094 289.902344 187.046875 290.027344 C 184.660156 290.34375 184.496094 289.796875 186.640625 288.679688 Z M 197.550781 263.722656 C 198.597656 261.445312 201.667969 255.617188 202.6875 253.972656 C 205.179688 249.941406 209.210938 246.882812 213.472656 245.785156 C 215.492188 245.265625 228.328125 244.054688 228.546875 244.363281 C 228.675781 244.546875 223.378906 249.230469 220.523438 251.460938 C 216.675781 254.464844 208.84375 259.484375 203.164062 262.59375 C 200.816406 263.875 198.425781 265.183594 197.855469 265.5 L 196.8125 266.070312 L 196.976562 265.339844 C 197.121094 264.78125 197.3125 264.242188 197.550781 263.71875 Z M 199.199219 265.769531 C 200.230469 265.160156 202.796875 263.769531 204.90625 262.683594 C 214.382812 257.804688 224.15625 251.023438 229.269531 245.78125 C 229.695312 245.347656 229.679688 245.679688 229.160156 247.875 C 227.457031 255.101562 220.648438 262.300781 213.609375 264.320312 C 210.683594 265.160156 198.050781 267.289062 197.578125 267.023438 C 197.4375 266.949219 198.167969 266.382812 199.199219 265.769531 Z M 130.207031 331.230469 C 130.472656 331.175781 130.414062 331.089844 130.054688 331.007812 C 129.730469 330.933594 129.535156 330.976562 129.617188 331.097656 C 129.703125 331.21875 129.96875 331.277344 130.207031 331.230469 Z M 131.835938 331.199219 C 132.0625 331.152344 131.902344 331.050781 131.476562 330.972656 C 131.050781 330.894531 130.863281 330.933594 131.0625 331.058594 C 131.304688 331.191406 131.5625 331.238281 131.835938 331.199219 Z M 36.808594 166.242188 C 37.324219 164.800781 38.625 161.617188 39.703125 159.167969 C 40.78125 156.71875 42.03125 153.625 42.476562 152.296875 C 43.796875 148.390625 44.066406 149.042969 44.308594 156.734375 C 44.398438 159.625 44.367188 162.574219 44.234375 163.285156 C 43.835938 165.421875 42.585938 167.898438 39.550781 172.578125 C 37.96875 175.019531 36.410156 177.582031 36.089844 178.269531 C 34.222656 182.292969 34.371094 182.0625 34.125 181.339844 C 33.757812 180.273438 35.703125 169.351562 36.808594 166.242188 Z M 49.882812 139.875 C 51.296875 137.347656 52.769531 135.691406 55.289062 133.804688 C 57.371094 132.242188 60.339844 130.691406 60.578125 131.035156 C 60.644531 131.136719 60.039062 132.09375 59.230469 133.167969 C 55.070312 138.671875 52.492188 144.925781 51.644531 151.566406 L 51.125 155.636719 L 50.359375 154.578125 C 49.300781 153.121094 48.367188 150.023438 48.242188 147.554688 C 48.09375 144.625 48.632812 142.105469 49.878906 139.875 Z M 55.472656 143.085938 C 56.972656 139.09375 61.980469 130.53125 61.691406 132.441406 C 61.625 132.882812 61.6875 134.984375 61.824219 137.109375 C 61.960938 139.238281 61.933594 141.769531 61.757812 142.730469 C 61.195312 145.855469 58.816406 149.761719 55.527344 152.957031 C 52.582031 155.820312 52.628906 155.886719 53.683594 150.296875 C 54.199219 147.585938 54.996094 144.351562 55.472656 143.085938 Z M 126.753906 119.9375 C 129.277344 114.597656 134.308594 111.125 139.5625 111.097656 C 141.757812 111.085938 148.894531 112.367188 148.417969 112.6875 C 148.226562 112.816406 147.027344 113.109375 145.753906 113.339844 C 140.546875 114.273438 133.027344 117.328125 128.5625 120.324219 C 126.996094 121.375 125.742188 122.152344 125.777344 122.054688 C 125.8125 121.960938 126.25 121.007812 126.753906 119.9375 Z M 129.882812 121.183594 C 135.039062 118.078125 140.28125 115.953125 145.847656 114.71875 L 148.542969 114.121094 L 146.429688 116.484375 C 142.726562 120.617188 141.84375 121.289062 139.128906 122.03125 C 137.78125 122.402344 135.367188 122.773438 133.769531 122.855469 C 132.167969 122.941406 129.917969 123.121094 128.769531 123.253906 C 127.621094 123.386719 126.640625 123.4375 126.585938 123.363281 C 126.535156 123.289062 128.019531 122.308594 129.882812 121.183594 Z M 95.363281 338.882812 C 98.972656 335.425781 100.960938 334.199219 103.566406 333.832031 C 105.433594 333.566406 112.257812 333.949219 112.535156 334.335938 C 112.679688 334.53125 104.660156 338.132812 102.148438 339.003906 C 99.191406 340.023438 93.050781 341.449219 93.117188 341.101562 C 93.125 341.058594 94.136719 340.058594 95.363281 338.882812 Z M 93.753906 342.214844 C 93.917969 342.15625 94.867188 342 95.859375 341.867188 C 99.675781 341.363281 105.046875 339.488281 111.042969 336.566406 C 112.183594 336.011719 113.15625 335.617188 113.203125 335.683594 C 113.472656 336.074219 110.722656 339.800781 109.183594 341.132812 C 106.917969 343.09375 104.652344 344.089844 101.695312 344.429688 C 99.59375 344.671875 99.148438 344.621094 96.867188 343.878906 C 94.386719 343.074219 93.164062 342.421875 93.753906 342.214844 Z M 147.28125 120.964844 C 148.648438 118.789062 151.46875 116.316406 153.683594 115.351562 C 156.222656 114.242188 159.480469 113.960938 161.792969 114.652344 C 164.257812 115.382812 166.035156 116.230469 165.640625 116.480469 C 165.464844 116.589844 164.507812 116.785156 163.515625 116.914062 C 159.925781 117.382812 153.589844 119.546875 149.171875 121.816406 C 147.273438 122.792969 146.019531 123.265625 146.105469 122.972656 C 146.152344 122.828125 146.679688 121.925781 147.28125 120.964844 Z M 150.714844 122.503906 C 156.34375 119.882812 160.398438 118.550781 165.046875 117.796875 C 166.492188 117.566406 166.558594 117.445312 163.722656 120.171875 C 160.417969 123.34375 158.359375 124.585938 155.808594 124.949219 C 153.941406 125.210938 147.117188 124.828125 146.839844 124.445312 C 146.800781 124.386719 148.542969 123.515625 150.714844 122.503906 Z M 111.347656 344.058594 C 111.675781 343.765625 112.933594 342.386719 114.144531 340.992188 C 115.355469 339.597656 116.867188 338.15625 117.503906 337.789062 C 119.328125 336.742188 122.566406 336.074219 126.980469 335.835938 C 129.222656 335.714844 131.34375 335.519531 131.699219 335.40625 C 134.796875 334.414062 128.089844 338.8125 123.515625 340.773438 C 120.273438 342.1875 116.921875 343.289062 113.472656 344.074219 C 111.957031 344.410156 110.726562 344.664062 110.734375 344.640625 C 110.746094 344.617188 111.023438 344.351562 111.347656 344.058594 Z M 112.695312 345.609375 C 117.40625 345.015625 126.214844 341.550781 130.757812 338.5 C 132.363281 337.421875 133.570312 336.75 133.4375 337.011719 C 133.308594 337.269531 132.90625 338.148438 132.550781 338.964844 C 130.363281 343.964844 125.179688 347.515625 119.847656 347.65625 C 117.882812 347.707031 110.710938 346.472656 110.78125 346.09375 C 110.804688 345.957031 111.667969 345.738281 112.695312 345.609375 Z M 199.105469 312.042969 C 200.484375 309.5 201.675781 307.9375 203.851562 305.824219 C 206.929688 302.824219 206.878906 302.710938 205.480469 309.371094 C 204.097656 315.964844 203.214844 318.179688 199.652344 324.003906 L 197.734375 327.136719 L 197.667969 324.417969 C 197.632812 322.921875 197.535156 320.824219 197.445312 319.761719 C 197.222656 317.019531 197.777344 314.449219 199.105469 312.042969 Z M 200.199219 325.511719 C 202.238281 322.847656 203.894531 319.960938 205.171875 316.859375 C 206.449219 313.757812 207.300781 310.539062 207.730469 307.214844 L 208.25 303.144531 L 209.015625 304.199219 C 210.683594 306.5 211.578125 311.402344 210.957031 314.859375 C 210.582031 316.953125 209.34375 319.539062 207.765625 321.53125 C 206.253906 323.4375 202.679688 326.238281 200.523438 327.207031 C 198.199219 328.25 198.175781 328.144531 200.199219 325.511719 Z M 216.242188 292.191406 C 216.660156 291.253906 218.285156 288.523438 219.859375 286.125 C 221.429688 283.726562 222.957031 281.234375 223.257812 280.582031 C 225.0625 276.648438 225.011719 276.730469 225.246094 277.421875 C 225.367188 277.777344 225.097656 280.460938 224.648438 283.382812 C 223.699219 289.5 222.6875 292.808594 219.667969 299.625 C 218.621094 301.988281 217.386719 305.042969 216.925781 306.410156 C 215.578125 310.398438 215.3125 309.769531 215.070312 302.042969 C 214.890625 296.363281 215.074219 294.820312 216.242188 292.191406 Z M 218.972656 304.300781 C 219.550781 302.910156 221.007812 299.574219 222.207031 296.886719 C 225.023438 290.582031 226.261719 286.386719 226.617188 281.964844 C 226.765625 280.132812 226.859375 278.351562 226.824219 278.007812 C 226.789062 277.664062 227.15625 278.75 227.640625 280.421875 C 229.617188 287.234375 229.304688 292.585938 226.648438 297.402344 C 224.710938 300.917969 219.351562 307.867188 217.992188 308.632812 C 217.289062 309.027344 217.628906 307.527344 218.972656 304.300781 Z M 231.757812 255.714844 C 232.269531 253.78125 232.8125 251.894531 232.964844 251.515625 C 233.363281 250.53125 233.808594 251.132812 233.585938 252.359375 C 233.316406 253.832031 234.03125 260.476562 235.074219 266.191406 C 236.324219 273.023438 236.542969 276.808594 235.941406 280.976562 C 235.480469 284.148438 235.414062 284.355469 235.066406 283.703125 C 233.171875 280.121094 230.65625 274.550781 230.179688 272.878906 C 229.007812 268.753906 229.378906 264.710938 231.757812 255.714844 Z M 235.21875 251.863281 C 235.640625 252.722656 236.109375 253.554688 236.628906 254.359375 C 238.253906 256.933594 240.707031 262.132812 241.335938 264.347656 C 242.828125 269.597656 242.140625 275.757812 239.566406 280.199219 C 238.875 281.394531 238.089844 282.800781 237.820312 283.324219 C 236.96875 284.992188 236.726562 284.257812 237.226562 281.515625 C 237.5 280.027344 237.679688 277.425781 237.636719 275.585938 C 237.558594 272.222656 237.410156 270.972656 235.890625 260.824219 C 235.402344 257.582031 234.96875 254.042969 234.921875 252.960938 C 234.84375 251.089844 234.859375 251.035156 235.21875 251.863281 Z M 235.21875 251.863281 " fill-opacity="1" fill-rule="nonzero"/></g></g></g><path fill="#ffffff" d="M 169.199219 280.75 C 140.867188 301.382812 101.027344 295.121094 80.394531 266.789062 C 59.761719 238.457031 66.023438 198.617188 94.355469 177.984375 C 122.6875 157.351562 162.523438 163.613281 183.160156 191.945312 C 203.792969 220.277344 197.53125 260.113281 169.199219 280.75 Z M 142.734375 159.664062 C 104.238281 153.613281 68.125 179.914062 62.074219 218.410156 C 56.019531 256.90625 82.324219 293.019531 120.820312 299.070312 C 159.316406 305.125 195.429688 278.820312 201.480469 240.324219 C 207.53125 201.828125 181.230469 165.714844 142.734375 159.664062 " fill-opacity="1" fill-rule="nonzero"/><path fill="#ffffff" d="M 187.625 235.410156 C 187.378906 235.398438 187.15625 235.542969 187.0625 235.757812 L 150.066406 233.558594 L 141.3125 229.175781 L 149.976562 224.835938 L 187.0625 222.632812 C 187.15625 222.847656 187.378906 222.992188 187.625 222.976562 L 191.394531 222.753906 C 191.632812 224.925781 191.757812 227.132812 191.757812 229.367188 C 191.757812 231.484375 191.644531 233.578125 191.429688 235.636719 Z M 187.394531 251.828125 L 184.125 250.191406 C 183.902344 250.078125 183.640625 250.125 183.46875 250.285156 L 152.332031 234.691406 L 187.003906 236.753906 C 187.070312 236.976562 187.273438 237.144531 187.523438 237.160156 L 191.222656 237.378906 C 190.546875 242.417969 189.242188 247.261719 187.394531 251.828125 Z M 180.285156 264.613281 L 177.121094 262.527344 C 176.914062 262.390625 176.652344 262.402344 176.460938 262.542969 L 145.523438 242.140625 L 140.132812 233.96875 L 149.804688 234.542969 L 183.023438 251.175781 C 182.996094 251.410156 183.117188 251.648438 183.339844 251.757812 L 186.710938 253.445312 C 184.964844 257.410156 182.804688 261.152344 180.285156 264.613281 Z M 168.695312 276.605469 L 166.699219 273.574219 C 166.5625 273.367188 166.3125 273.277344 166.085938 273.328125 L 146.914062 244.257812 L 175.910156 263.375 C 175.859375 263.605469 175.949219 263.851562 176.15625 263.988281 L 179.230469 266.015625 C 176.171875 269.964844 172.628906 273.527344 168.695312 276.605469 Z M 156.171875 284.160156 L 154.46875 280.753906 C 154.355469 280.535156 154.121094 280.414062 153.886719 280.4375 L 137.292969 247.300781 L 136.710938 237.527344 L 144.800781 242.863281 L 165.25 273.878906 C 165.113281 274.066406 165.097656 274.332031 165.234375 274.539062 L 167.300781 277.667969 C 163.851562 280.210938 160.125 282.394531 156.171875 284.160156 Z M 140.132812 288.769531 L 139.917969 285.113281 C 139.902344 284.863281 139.734375 284.664062 139.507812 284.59375 L 137.441406 249.832031 L 152.996094 280.886719 C 152.835938 281.058594 152.789062 281.316406 152.902344 281.539062 L 154.558594 284.851562 C 150.003906 286.730469 145.167969 288.0625 140.132812 288.769531 Z M 138.390625 288.984375 C 136.21875 289.222656 134.011719 289.347656 131.777344 289.347656 C 129.660156 289.347656 127.566406 289.238281 125.507812 289.019531 L 125.734375 285.21875 C 125.746094 284.96875 125.601562 284.75 125.386719 284.652344 L 127.585938 247.65625 L 131.96875 238.902344 L 136.308594 247.566406 L 138.511719 284.652344 C 138.296875 284.75 138.152344 284.96875 138.167969 285.21875 Z M 123.984375 285.113281 L 123.765625 288.8125 C 118.726562 288.136719 113.878906 286.835938 109.316406 284.984375 L 110.953125 281.714844 C 111.066406 281.492188 111.019531 281.230469 110.859375 281.058594 L 126.453125 249.921875 L 124.390625 284.59375 C 124.167969 284.664062 124 284.863281 123.984375 285.113281 Z M 107.699219 284.300781 C 103.734375 282.554688 99.992188 280.394531 96.53125 277.875 L 98.617188 274.710938 C 98.753906 274.503906 98.738281 274.242188 98.601562 274.050781 L 119.003906 243.113281 L 127.175781 237.722656 L 126.601562 247.394531 L 109.96875 280.613281 C 109.734375 280.589844 109.496094 280.707031 109.386719 280.929688 Z M 84.539062 266.289062 L 87.570312 264.289062 C 87.777344 264.152344 87.867188 263.90625 87.816406 263.675781 L 116.886719 244.507812 L 97.769531 273.5 C 97.539062 273.449219 97.292969 273.539062 97.15625 273.746094 L 95.128906 276.820312 C 91.179688 273.761719 87.617188 270.222656 84.539062 266.289062 Z M 76.984375 253.761719 L 80.386719 252.058594 C 80.609375 251.945312 80.730469 251.710938 80.707031 251.476562 L 113.84375 234.882812 L 123.617188 234.300781 L 118.28125 242.390625 L 87.265625 262.84375 C 87.078125 262.703125 86.8125 262.6875 86.605469 262.828125 L 83.476562 264.890625 C 80.933594 261.441406 78.75 257.714844 76.984375 253.761719 Z M 72.375 237.722656 L 76.03125 237.507812 C 76.28125 237.492188 76.480469 237.324219 76.550781 237.097656 L 111.3125 235.03125 L 80.257812 250.585938 C 80.085938 250.425781 79.828125 250.378906 79.605469 250.492188 L 76.292969 252.148438 C 74.414062 247.59375 73.082031 242.757812 72.375 237.722656 Z M 71.796875 229.367188 C 71.796875 227.25 71.90625 225.160156 72.125 223.097656 L 75.929688 223.324219 C 76.175781 223.339844 76.394531 223.195312 76.492188 222.980469 L 113.488281 225.175781 L 122.242188 229.558594 L 113.578125 233.898438 L 76.492188 236.101562 C 76.394531 235.886719 76.175781 235.742188 75.929688 235.757812 L 72.160156 235.980469 C 71.921875 233.808594 71.796875 231.601562 71.796875 229.367188 Z M 76.160156 206.90625 L 79.429688 208.542969 C 79.652344 208.65625 79.914062 208.609375 80.085938 208.449219 L 111.222656 224.042969 L 76.550781 221.984375 C 76.480469 221.757812 76.28125 221.589844 76.03125 221.574219 L 72.332031 221.355469 C 73.007812 216.316406 74.3125 211.472656 76.160156 206.90625 Z M 83.269531 194.125 L 86.433594 196.207031 C 86.640625 196.347656 86.902344 196.332031 87.09375 196.191406 L 118.03125 216.59375 L 123.421875 224.765625 L 113.75 224.191406 L 80.53125 207.558594 C 80.554688 207.324219 80.4375 207.089844 80.214844 206.976562 L 76.84375 205.289062 C 78.589844 201.324219 80.75 197.585938 83.269531 194.125 Z M 94.855469 182.128906 L 96.855469 185.160156 C 96.992188 185.367188 97.238281 185.457031 97.46875 185.40625 L 116.636719 214.476562 L 87.644531 195.359375 C 87.695312 195.128906 87.605469 194.882812 87.398438 194.746094 L 84.324219 192.71875 C 87.382812 188.769531 90.921875 185.210938 94.855469 182.128906 Z M 107.382812 174.574219 L 109.085938 177.976562 C 109.199219 178.199219 109.433594 178.320312 109.667969 178.296875 L 126.261719 211.433594 L 126.84375 221.207031 L 118.753906 215.875 L 98.300781 184.855469 C 98.441406 184.667969 98.457031 184.40625 98.316406 184.195312 L 96.253906 181.066406 C 99.703125 178.523438 103.429688 176.339844 107.382812 174.574219 Z M 123.417969 169.96875 L 123.636719 173.621094 C 123.652344 173.871094 123.820312 174.074219 124.046875 174.140625 L 126.113281 208.90625 L 110.558594 177.847656 C 110.71875 177.675781 110.765625 177.417969 110.652344 177.195312 L 108.996094 173.882812 C 113.550781 172.003906 118.386719 170.671875 123.417969 169.96875 Z M 125.164062 169.75 C 127.335938 169.511719 129.542969 169.386719 131.777344 169.386719 C 133.894531 169.386719 135.984375 169.5 138.046875 169.714844 L 137.820312 173.519531 C 137.804688 173.765625 137.949219 173.988281 138.164062 174.082031 L 135.96875 211.078125 L 131.582031 219.832031 L 127.246094 211.167969 L 125.042969 174.082031 C 125.257812 173.988281 125.402344 173.765625 125.386719 173.519531 Z M 139.570312 173.621094 L 139.789062 169.921875 C 144.828125 170.597656 149.671875 171.902344 154.238281 173.75 L 152.601562 177.019531 C 152.488281 177.242188 152.535156 177.503906 152.695312 177.675781 L 137.101562 208.8125 L 139.160156 174.140625 C 139.386719 174.074219 139.554688 173.871094 139.570312 173.621094 Z M 155.855469 174.433594 C 159.820312 176.179688 163.558594 178.339844 167.019531 180.859375 L 164.9375 184.023438 C 164.796875 184.230469 164.8125 184.492188 164.953125 184.683594 L 144.550781 215.621094 L 136.378906 221.011719 L 136.953125 211.339844 L 153.585938 178.121094 C 153.820312 178.148438 154.054688 178.027344 154.167969 177.804688 Z M 179.015625 192.445312 L 175.984375 194.445312 C 175.777344 194.582031 175.6875 194.828125 175.738281 195.058594 L 146.667969 214.230469 L 165.785156 185.234375 C 166.015625 185.285156 166.261719 185.195312 166.398438 184.988281 L 168.421875 181.914062 C 172.375 184.972656 175.933594 188.515625 179.015625 192.445312 Z M 140.699219 229.984375 L 147.539062 233.410156 L 139.96875 232.957031 C 140.269531 232.269531 140.488281 231.53125 140.613281 230.757812 C 140.652344 230.496094 140.679688 230.238281 140.699219 229.984375 Z M 140.667969 228.382812 C 140.554688 227.34375 140.257812 226.351562 139.8125 225.441406 L 147.449219 224.984375 Z M 139.195312 234.363281 L 143.40625 240.746094 L 137.074219 236.574219 C 137.898438 235.96875 138.617188 235.21875 139.195312 234.363281 Z M 136.773438 221.949219 L 143.15625 217.738281 L 138.980469 224.070312 C 138.375 223.246094 137.628906 222.527344 136.773438 221.949219 Z M 132.390625 220.445312 L 135.816406 213.605469 L 135.367188 221.175781 C 134.679688 220.875 133.941406 220.652344 133.167969 220.53125 C 132.90625 220.492188 132.648438 220.464844 132.390625 220.445312 Z M 127.394531 213.695312 L 130.792969 220.476562 C 129.753906 220.589844 128.761719 220.886719 127.847656 221.332031 Z M 124.570312 234.664062 C 125.175781 235.488281 125.925781 236.207031 126.78125 236.789062 L 120.394531 240.996094 Z M 120.148438 217.988281 L 126.480469 222.164062 C 125.65625 222.769531 124.9375 223.515625 124.355469 224.371094 Z M 122.855469 228.753906 L 116.015625 225.328125 L 123.585938 225.777344 C 123.28125 226.464844 123.0625 227.203125 122.941406 227.976562 C 122.902344 228.238281 122.875 228.496094 122.855469 228.753906 Z M 122.886719 230.351562 C 123 231.390625 123.296875 232.382812 123.742188 233.296875 L 116.105469 233.75 Z M 131.160156 238.289062 L 127.734375 245.128906 L 128.1875 237.558594 C 128.875 237.859375 129.609375 238.082031 130.386719 238.203125 C 130.648438 238.242188 130.90625 238.269531 131.160156 238.289062 Z M 136.160156 245.039062 L 132.761719 238.257812 C 133.800781 238.144531 134.792969 237.847656 135.703125 237.402344 Z M 130.792969 235.632812 C 127.332031 235.089844 124.964844 231.84375 125.511719 228.382812 C 126.054688 224.921875 129.300781 222.554688 132.761719 223.101562 C 136.222656 223.644531 138.589844 226.890625 138.042969 230.351562 C 137.5 233.8125 134.253906 236.179688 130.792969 235.632812 Z M 186.570312 204.972656 L 183.167969 206.675781 C 182.945312 206.789062 182.824219 207.023438 182.847656 207.257812 L 149.710938 223.851562 L 139.9375 224.433594 L 145.269531 216.34375 L 176.289062 195.894531 C 176.476562 196.03125 176.738281 196.046875 176.949219 195.910156 L 180.078125 193.84375 C 182.621094 197.292969 184.800781 201.019531 186.570312 204.972656 Z M 191.175781 221.011719 L 187.523438 221.226562 C 187.273438 221.242188 187.070312 221.410156 187.003906 221.636719 L 152.238281 223.703125 L 183.296875 208.148438 C 183.46875 208.308594 183.726562 208.355469 183.949219 208.242188 L 187.261719 206.585938 C 189.140625 211.140625 190.472656 215.976562 191.175781 221.011719 Z M 188.558594 205.378906 C 185.457031 198.039062 181.011719 191.449219 175.355469 185.792969 C 169.695312 180.132812 163.101562 175.6875 155.765625 172.582031 C 148.167969 169.371094 140.097656 167.742188 131.777344 167.742188 C 123.457031 167.742188 115.386719 169.371094 107.789062 172.582031 C 100.449219 175.6875 93.859375 180.132812 88.199219 185.792969 C 82.539062 191.449219 78.097656 198.039062 74.992188 205.378906 C 71.78125 212.976562 70.152344 221.046875 70.152344 229.367188 C 70.152344 237.6875 71.78125 245.757812 74.992188 253.355469 C 78.097656 260.695312 82.539062 267.285156 88.199219 272.945312 C 93.859375 278.601562 100.449219 283.046875 107.789062 286.152344 C 115.386719 289.363281 123.457031 290.992188 131.777344 290.992188 C 140.097656 290.992188 148.167969 289.363281 155.765625 286.152344 C 163.101562 283.046875 169.695312 278.601562 175.355469 272.945312 C 181.011719 267.285156 185.457031 260.695312 188.558594 253.355469 C 191.773438 245.757812 193.402344 237.6875 193.402344 229.367188 C 193.402344 221.046875 191.773438 212.976562 188.558594 205.378906 " fill-opacity="1" fill-rule="nonzero"/><path fill="#ffffff" d="M 132.316406 225.9375 C 130.421875 225.640625 128.644531 226.933594 128.347656 228.828125 C 128.050781 230.722656 129.34375 232.496094 131.238281 232.796875 C 133.132812 233.09375 134.90625 231.800781 135.207031 229.90625 C 135.503906 228.011719 134.210938 226.238281 132.316406 225.9375 " fill-opacity="1" fill-rule="nonzero"/></svg>