<svg xmlns="http://www.w3.org/2000/svg" xmlns:xlink="http://www.w3.org/1999/xlink" version="1.1" x="0px" y="0px" viewBox="0 0 100 77.5" enable-background="new 0 0 100 62" xml:space="preserve"><g><g><path d="M41.6,6c-0.3-0.1-0.8-0.4-2.7-0.6c-0.8-0.1-1.4-0.1-2-0.1c-0.6,0-1.1,0-1.7,0c-0.4,0-0.9,0-1.3-0.1    c-2-0.3-3.1-0.6-4.9-0.6c-1.4,0-2.1,2.2-0.3,2.9c0.9,0.4,2.2,0.6,3.3,0.7l0,0c0.2,0,0.4,0,0.7,0c0.7,0,1.3-0.1,1.7-0.1    c1-0.2,2.5-0.7,4-0.7c0.2,0,0.3,0,0.5,0c1,0.1,1.4,0.1,1.9,0.3c0.2,0.1,0.3,0.1,0.4,0.1C42.1,7.8,42.5,6.5,41.6,6z"/><circle cx="77.9" cy="40.3" r="3.1"/><path d="M77.9,23.1c-9.4,0-17.1,7.7-17.1,17.1c0,9.4,7.7,17.1,17.1,17.1S95,49.7,95,40.3C95,30.8,87.3,23.1,77.9,23.1z M77.9,54.7    c-7.9,0-14.4-6.5-14.4-14.4c0-7.9,6.5-14.4,14.4-14.4s14.4,6.5,14.4,14.4C92.3,48.2,85.8,54.7,77.9,54.7z"/><path d="M74.8,38.5c0.5-0.8,1.2-1.4,2.1-1.6c-1.6-2.6-3-6.1-4.2-9.6c-0.9,0.3-1.7,0.8-2.4,1.2C71.6,32.1,73.1,35.8,74.8,38.5z"/><path d="M48,38.6c-2.4,0-4.4,2-4.4,4.4c0,2.4,2,4.4,4.4,4.4c2.4,0,4.4-2,4.4-4.4C52.4,40.6,50.4,38.6,48,38.6z"/><circle cx="22.1" cy="40.3" r="3.1"/><path d="M43.1,43c0-0.7,0.1-1.3,0.4-1.9l-4.2-0.5c0-0.2,0-0.3,0-0.5c0-9.4-7.7-17.1-17.1-17.1S5,30.8,5,40.3    c0,9.4,7.7,17.1,17.1,17.1c8.4,0,15.3-6,16.8-14l4.2,0.5C43.1,43.6,43.1,43.3,43.1,43z M22.1,54.7c-7.9,0-14.4-6.5-14.4-14.4    c0-7.9,6.5-14.4,14.4-14.4s14.4,6.5,14.4,14.4c0,0.1,0,0.1,0,0.2l-11.1-1.2c0.1,0.3,0.2,0.7,0.2,1c0,0.6-0.2,1.2-0.5,1.7l11.1,1.2    C34.9,49.7,29.1,54.7,22.1,54.7z"/><path d="M22.5,36.8c1,0.1,1.8,0.6,2.4,1.3l5.2-9.3c-0.7-0.5-1.5-1-2.4-1.3L22.5,36.8z"/><path d="M74.3,6.7L74.3,6.7l-6.9,0c-0.7,0-1.2,0.2-1.6,0.7c-0.6,0.7-0.5,1.6-0.2,2.8l0.7,3.1H37.1l-2.1-5    c-0.2,0.1-0.4,0.1-0.6,0.1c-0.4,0.1-1.1,0.1-1.8,0.1c-0.1,0-0.3,0-0.5,0l2.5,6l-5.3,9.6c0.8,0.4,1.6,0.8,2.4,1.3l4.3-7.7L45,39.2    c0.7-0.6,1.6-0.9,2.5-1L38.2,16h28.5c0.1,0.3,0.2,0.8,0.3,1.3L49.9,38.5c0.9,0.4,1.6,1,2.1,1.7l16-19.7c0.4,1.3,0.8,2.9,1.3,4.4    c0.8-0.4,1.6-0.8,2.5-1.2c-1.5-5.1-2.5-9.3-2.5-9.4h0l-1-4.7c0-0.1,0-0.2,0-0.2h5.8c2.5,0,2.7,2.1,2.7,2.7c0,1-0.4,2.1-3.1,2.8    l0,0c-0.6,0.2-1,0.7-1,1.3c0,0.7,0.6,1.4,1.4,1.4c0.1,0,0.2,0,0.3-0.1l0,0c3.4-0.9,5.1-2.7,5.1-5.4C79.4,9.1,77.3,6.9,74.3,6.7z"/></g></g><text x="0" y="77" fill="#000000" font-size="5px" font-weight="bold" font-family="'Helvetica Neue', Helvetica, Arial-Unicode, Arial, Sans-serif">Created by Mikhail Iskandarov</text><text x="0" y="82" fill="#000000" font-size="5px" font-weight="bold" font-family="'Helvetica Neue', Helvetica, Arial-Unicode, Arial, Sans-serif">from the Noun Project</text></svg>